<svg xmlns="http://www.w3.org/2000/svg" xmlns:xlink="http://www.w3.org/1999/xlink" width="500" zoomAndPan="magnify" viewBox="0 0 375 374.999991" height="500" preserveAspectRatio="xMidYMid meet" version="1.0"><defs><clipPath id="6565894442"><path d="M 204 111 L 365.34375 111 L 365.34375 195 L 204 195 Z M 204 111 " clip-rule="nonzero"/></clipPath><clipPath id="9cd96a75dd"><path d="M 327 155 L 365.34375 155 L 365.34375 194 L 327 194 Z M 327 155 " clip-rule="nonzero"/></clipPath></defs><path fill="#000000" d="M 146.546875 165.78125 C 112.378906 141.894531 98.199219 146.273438 93.6875 149.261719 C 92.628906 149.953125 91.707031 150.792969 90.917969 151.78125 C 90.132812 152.769531 89.519531 153.855469 89.085938 155.042969 C 89.042969 155.125 89 155.207031 88.964844 155.296875 C 88.847656 155.582031 82.375 171.351562 73.226562 194.09375 C 73.214844 194.121094 73.203125 194.152344 73.191406 194.183594 C 65.730469 212.722656 56.492188 235.882812 47.464844 259.066406 C 35.632812 289.449219 26.464844 313.933594 20.214844 331.84375 C 16.476562 342.550781 13.742188 351.03125 12.089844 357.050781 C 9.367188 366.949219 9.324219 370.554688 11.890625 373.121094 C 13.136719 374.363281 14.628906 374.992188 16.976562 374.992188 C 19.496094 374.992188 22.992188 374.269531 28.210938 372.808594 C 34.359375 371.09375 43.03125 368.265625 53.992188 364.40625 C 67.207031 359.753906 83.949219 353.53125 103.917969 345.859375 C 104.796875 345.753906 105.597656 345.445312 106.320312 344.9375 C 113.335938 342.234375 120.734375 339.359375 128.523438 336.3125 C 130.914062 335.375 133.304688 334.4375 135.695312 333.496094 L 135.726562 333.484375 C 186.15625 313.644531 234.34375 293.792969 234.847656 293.585938 C 235.8125 293.1875 236.59375 292.558594 237.1875 291.699219 C 237.375 291.558594 237.566406 291.421875 237.746094 291.273438 C 245.613281 284.644531 241.378906 270.742188 224.019531 246.199219 C 200.332031 212.707031 172.820312 184.148438 146.546875 165.78125 Z M 135.210938 322.265625 C 95.058594 277.683594 84.859375 207.171875 83.5625 196.890625 C 87.023438 188.289062 90.082031 180.734375 92.535156 174.695312 C 93.410156 176.402344 94.429688 178.210938 95.625 180.136719 C 109.527344 202.214844 125.632812 222.550781 143.945312 241.136719 C 159.550781 256.492188 176.753906 269.777344 195.554688 281 C 201.597656 284.640625 207.878906 287.796875 214.40625 290.46875 C 196.621094 297.726562 166.539062 309.914062 135.210938 322.265625 Z M 104.511719 334.246094 C 69.125 297.03125 64.664062 252.019531 64.199219 245.5 C 68.222656 235.273438 72.191406 225.285156 75.921875 215.941406 C 77.515625 223.992188 79.847656 234.082031 83.1875 245.28125 C 90.140625 268.578125 102.867188 300.792969 124.703125 326.394531 C 117.507812 329.210938 110.777344 331.828125 104.511719 334.246094 Z M 21.308594 363.683594 C 23.335938 354.957031 30.921875 330.949219 56.464844 265.261719 C 60.578125 283.839844 70.40625 312.335938 93.820312 338.351562 C 47.449219 356.0625 28.78125 361.917969 21.308594 363.683594 Z M 230.8125 283.160156 C 229.863281 283.449219 222.679688 284.789062 200.03125 271.300781 C 182.363281 260.640625 166.175781 248.082031 151.464844 233.621094 C 133.722656 215.613281 118.121094 195.914062 104.65625 174.527344 C 98.074219 163.941406 98.386719 158.902344 99.566406 158.117188 C 100.617188 157.582031 101.734375 157.355469 102.910156 157.441406 C 106.207031 157.574219 109.402344 158.214844 112.496094 159.363281 C 120.46875 162.046875 130.136719 167.277344 140.453125 174.492188 C 165.746094 192.171875 192.339844 219.820312 215.335938 252.332031 C 231.742188 275.527344 231.050781 282.195312 230.8125 283.160156 Z M 230.8125 283.160156 " fill-opacity="1" fill-rule="nonzero"/><path fill="#000000" d="M 185.496094 151.140625 C 185.789062 151.332031 186.097656 151.492188 186.421875 151.621094 C 186.746094 151.75 187.082031 151.84375 187.425781 151.90625 C 187.769531 151.96875 188.113281 152 188.464844 151.996094 C 188.8125 151.988281 189.15625 151.949219 189.5 151.878906 C 189.839844 151.804688 190.171875 151.699219 190.492188 151.558594 C 190.8125 151.421875 191.117188 151.253906 191.402344 151.054688 C 191.691406 150.855469 191.957031 150.632812 192.199219 150.382812 C 192.441406 150.132812 192.660156 149.859375 192.847656 149.566406 C 218.421875 110.070312 224.402344 72.640625 224.914062 48.195312 C 225.476562 21.558594 219.957031 4.378906 219.722656 3.660156 C 219.617188 3.332031 219.476562 3.011719 219.304688 2.707031 C 219.132812 2.402344 218.933594 2.121094 218.707031 1.855469 C 218.480469 1.589844 218.230469 1.351562 217.953125 1.132812 C 217.679688 0.917969 217.386719 0.730469 217.074219 0.574219 C 216.765625 0.417969 216.441406 0.289062 216.105469 0.195312 C 215.769531 0.101562 215.425781 0.0429688 215.078125 0.015625 C 214.730469 -0.0117188 214.382812 -0.00390625 214.035156 0.0390625 C 213.6875 0.078125 213.351562 0.15625 213.019531 0.261719 C 212.6875 0.371094 212.367188 0.511719 212.0625 0.683594 C 211.757812 0.855469 211.476562 1.050781 211.210938 1.28125 C 210.945312 1.507812 210.703125 1.757812 210.488281 2.03125 C 210.273438 2.304688 210.085938 2.597656 209.929688 2.910156 C 209.769531 3.222656 209.644531 3.546875 209.550781 3.882812 C 209.457031 4.21875 209.394531 4.558594 209.371094 4.90625 C 209.34375 5.253906 209.351562 5.601562 209.390625 5.949219 C 209.433594 6.296875 209.507812 6.632812 209.617188 6.964844 C 209.828125 7.609375 230.199219 72.3125 183.921875 143.792969 C 183.730469 144.085938 183.574219 144.394531 183.445312 144.71875 C 183.316406 145.042969 183.21875 145.378906 183.15625 145.722656 C 183.09375 146.0625 183.0625 146.410156 183.070312 146.757812 C 183.074219 147.109375 183.113281 147.453125 183.1875 147.792969 C 183.261719 148.136719 183.367188 148.464844 183.503906 148.785156 C 183.640625 149.105469 183.808594 149.410156 184.007812 149.699219 C 184.207031 149.984375 184.429688 150.25 184.683594 150.492188 C 184.933594 150.734375 185.203125 150.953125 185.496094 151.140625 Z M 185.496094 151.140625 " fill-opacity="1" fill-rule="nonzero"/><path fill="#000000" d="M 138.859375 81.964844 C 143.726562 98.519531 142.503906 116.496094 135.234375 135.390625 C 135.109375 135.714844 135.015625 136.050781 134.957031 136.394531 C 134.894531 136.738281 134.871094 137.085938 134.878906 137.433594 C 134.886719 137.78125 134.929688 138.128906 135.007812 138.46875 C 135.085938 138.808594 135.195312 139.136719 135.335938 139.457031 C 135.476562 139.777344 135.648438 140.078125 135.851562 140.363281 C 136.050781 140.648438 136.277344 140.910156 136.53125 141.152344 C 136.785156 141.390625 137.058594 141.605469 137.355469 141.792969 C 137.648438 141.980469 137.960938 142.132812 138.285156 142.261719 C 138.613281 142.386719 138.945312 142.476562 139.289062 142.535156 C 139.636719 142.597656 139.980469 142.621094 140.332031 142.613281 C 140.679688 142.601562 141.023438 142.558594 141.363281 142.484375 C 141.707031 142.40625 142.035156 142.296875 142.355469 142.15625 C 142.671875 142.011719 142.976562 141.84375 143.261719 141.640625 C 143.546875 141.4375 143.808594 141.210938 144.050781 140.957031 C 144.289062 140.707031 144.503906 140.433594 144.691406 140.136719 C 144.875 139.839844 145.03125 139.53125 145.15625 139.203125 C 164.855469 88.015625 138.449219 56.914062 137.316406 55.613281 C 137.085938 55.351562 136.835938 55.117188 136.558594 54.90625 C 136.28125 54.691406 135.988281 54.507812 135.675781 54.355469 C 135.363281 54.199219 135.039062 54.078125 134.703125 53.988281 C 134.367188 53.898438 134.027344 53.839844 133.679688 53.816406 C 133.332031 53.792969 132.984375 53.800781 132.640625 53.847656 C 132.296875 53.890625 131.957031 53.96875 131.628906 54.078125 C 131.296875 54.191406 130.980469 54.332031 130.679688 54.503906 C 130.375 54.675781 130.09375 54.878906 129.832031 55.105469 C 129.570312 55.335938 129.332031 55.585938 129.117188 55.859375 C 128.902344 56.136719 128.71875 56.429688 128.5625 56.738281 C 128.40625 57.050781 128.285156 57.375 128.191406 57.710938 C 128.097656 58.046875 128.039062 58.386719 128.015625 58.734375 C 127.992188 59.082031 128 59.425781 128.042969 59.773438 C 128.085938 60.117188 128.160156 60.457031 128.269531 60.785156 C 128.378906 61.117188 128.519531 61.433594 128.691406 61.734375 C 128.863281 62.039062 129.0625 62.320312 129.289062 62.585938 C 129.347656 62.652344 135.222656 69.59375 138.859375 81.964844 Z M 138.859375 81.964844 " fill-opacity="1" fill-rule="nonzero"/><g clip-path="url(#6565894442)"><path fill="#000000" d="M 363.410156 121.453125 C 362.792969 120.898438 348.050781 107.941406 330.996094 112.183594 C 318.542969 115.28125 308.679688 126.480469 301.679688 145.46875 C 295.90625 161.140625 290.011719 169.582031 283.667969 171.269531 C 277.992188 172.78125 270.277344 169.238281 259.390625 160.121094 C 253.351562 155.066406 246.433594 153.121094 239.382812 154.5 C 231.128906 156.113281 222.78125 162.125 214.566406 172.378906 C 210.957031 176.886719 207.757812 181.671875 204.964844 186.726562 C 204.804688 187.035156 204.671875 187.355469 204.570312 187.691406 C 204.46875 188.023438 204.402344 188.367188 204.371094 188.714844 C 204.335938 189.0625 204.339844 189.40625 204.375 189.753906 C 204.410156 190.101562 204.476562 190.441406 204.582031 190.777344 C 204.683594 191.109375 204.816406 191.429688 204.984375 191.738281 C 205.148438 192.042969 205.34375 192.332031 205.5625 192.601562 C 205.785156 192.871094 206.03125 193.113281 206.304688 193.335938 C 206.574219 193.554688 206.863281 193.746094 207.171875 193.910156 C 207.480469 194.074219 207.800781 194.207031 208.136719 194.308594 C 208.46875 194.40625 208.8125 194.472656 209.160156 194.507812 C 209.507812 194.539062 209.855469 194.539062 210.203125 194.503906 C 210.546875 194.46875 210.890625 194.398438 211.222656 194.296875 C 211.554688 194.195312 211.878906 194.0625 212.183594 193.894531 C 212.492188 193.730469 212.78125 193.535156 213.050781 193.3125 C 213.316406 193.089844 213.5625 192.84375 213.785156 192.574219 C 214.003906 192.304688 214.195312 192.015625 214.359375 191.707031 C 217.910156 185.03125 229.699219 167.210938 241.433594 164.925781 C 245.332031 164.167969 248.972656 165.261719 252.5625 168.269531 C 260.574219 174.976562 270.722656 182.230469 281.042969 182.230469 C 282.859375 182.234375 284.648438 182.003906 286.40625 181.539062 C 296.613281 178.820312 304.402344 168.832031 311.660156 149.144531 C 317.355469 133.691406 324.703125 124.730469 333.507812 122.511719 C 345.066406 119.59375 356.222656 129.285156 356.320312 129.371094 C 356.582031 129.605469 356.863281 129.808594 357.164062 129.988281 C 357.464844 130.164062 357.777344 130.3125 358.109375 130.425781 C 358.4375 130.542969 358.773438 130.625 359.121094 130.675781 C 359.464844 130.722656 359.8125 130.738281 360.164062 130.71875 C 360.511719 130.699219 360.855469 130.644531 361.191406 130.558594 C 361.53125 130.472656 361.855469 130.351562 362.171875 130.203125 C 362.484375 130.050781 362.78125 129.871094 363.0625 129.660156 C 363.339844 129.449219 363.597656 129.214844 363.828125 128.957031 C 364.0625 128.695312 364.265625 128.414062 364.445312 128.113281 C 364.621094 127.816406 364.769531 127.5 364.882812 127.171875 C 365 126.839844 365.082031 126.503906 365.132812 126.160156 C 365.179688 125.8125 365.195312 125.464844 365.175781 125.117188 C 365.15625 124.769531 365.101562 124.425781 365.015625 124.089844 C 364.929688 123.75 364.808594 123.425781 364.660156 123.109375 C 364.507812 122.796875 364.328125 122.5 364.117188 122.21875 C 363.90625 121.941406 363.671875 121.683594 363.414062 121.453125 Z M 363.410156 121.453125 " fill-opacity="1" fill-rule="nonzero"/></g><path fill="#000000" d="M 355.839844 223.175781 C 355.210938 222.882812 340.183594 216.035156 318.527344 214.257812 C 289.742188 211.894531 262.867188 219.742188 240.8125 236.945312 C 240.539062 237.160156 240.289062 237.398438 240.058594 237.664062 C 239.832031 237.925781 239.632812 238.210938 239.460938 238.515625 C 239.289062 238.816406 239.148438 239.136719 239.039062 239.46875 C 238.925781 239.796875 238.851562 240.136719 238.808594 240.484375 C 238.765625 240.828125 238.757812 241.175781 238.785156 241.523438 C 238.808594 241.871094 238.867188 242.214844 238.960938 242.550781 C 239.054688 242.886719 239.179688 243.210938 239.335938 243.523438 C 239.492188 243.835938 239.679688 244.128906 239.894531 244.402344 C 240.109375 244.679688 240.347656 244.929688 240.613281 245.15625 C 240.878906 245.386719 241.160156 245.585938 241.464844 245.757812 C 241.769531 245.929688 242.085938 246.070312 242.417969 246.179688 C 242.75 246.289062 243.089844 246.363281 243.433594 246.40625 C 243.78125 246.449219 244.128906 246.457031 244.476562 246.433594 C 244.824219 246.40625 245.167969 246.347656 245.503906 246.253906 C 245.839844 246.160156 246.164062 246.035156 246.476562 245.878906 C 246.789062 245.722656 247.082031 245.535156 247.355469 245.320312 C 267.449219 229.648438 290.972656 222.75 317.277344 224.816406 C 337.097656 226.378906 351.171875 232.726562 351.382812 232.824219 C 351.699219 232.96875 352.027344 233.082031 352.367188 233.164062 C 352.707031 233.242188 353.050781 233.292969 353.398438 233.304688 C 353.746094 233.316406 354.09375 233.296875 354.4375 233.242188 C 354.78125 233.1875 355.117188 233.101562 355.445312 232.980469 C 355.773438 232.859375 356.085938 232.707031 356.382812 232.523438 C 356.679688 232.34375 356.957031 232.132812 357.210938 231.898438 C 357.46875 231.660156 357.699219 231.402344 357.902344 231.121094 C 358.109375 230.835938 358.285156 230.539062 358.429688 230.222656 C 358.574219 229.90625 358.691406 229.578125 358.773438 229.238281 C 358.851562 228.902344 358.902344 228.558594 358.914062 228.207031 C 358.929688 227.859375 358.910156 227.515625 358.855469 227.171875 C 358.800781 226.824219 358.714844 226.488281 358.59375 226.164062 C 358.472656 225.835938 358.324219 225.523438 358.140625 225.226562 C 357.957031 224.929688 357.75 224.652344 357.515625 224.394531 C 357.277344 224.140625 357.019531 223.90625 356.738281 223.703125 C 356.457031 223.496094 356.15625 223.320312 355.839844 223.175781 Z M 355.839844 223.175781 " fill-opacity="1" fill-rule="nonzero"/><path fill="#000000" d="M 270.128906 107.300781 C 270.191406 107.300781 270.253906 107.300781 270.316406 107.296875 C 277.085938 107.0625 290.089844 102.304688 290.859375 85.964844 C 291.191406 78.863281 291.832031 75.328125 293.140625 73.359375 C 294.398438 71.464844 296.871094 70.035156 302.214844 67.222656 C 302.527344 67.058594 302.816406 66.867188 303.089844 66.648438 C 303.363281 66.429688 303.609375 66.1875 303.832031 65.917969 C 304.058594 65.648438 304.253906 65.363281 304.421875 65.054688 C 304.589844 64.746094 304.722656 64.425781 304.828125 64.09375 C 304.929688 63.761719 305.003906 63.417969 305.039062 63.070312 C 305.074219 62.722656 305.078125 62.375 305.046875 62.027344 C 305.015625 61.679688 304.949219 61.339844 304.847656 61.003906 C 304.75 60.667969 304.617188 60.347656 304.457031 60.035156 C 304.292969 59.726562 304.101562 59.4375 303.878906 59.164062 C 303.660156 58.894531 303.414062 58.648438 303.144531 58.425781 C 302.878906 58.199219 302.589844 58.007812 302.28125 57.839844 C 301.972656 57.671875 301.652344 57.539062 301.320312 57.4375 C 300.984375 57.332031 300.644531 57.261719 300.296875 57.226562 C 299.949219 57.191406 299.601562 57.191406 299.25 57.222656 C 298.902344 57.257812 298.5625 57.324219 298.226562 57.421875 C 297.890625 57.523438 297.570312 57.65625 297.261719 57.820312 C 284.195312 64.699219 281.054688 68.074219 280.238281 85.464844 C 279.757812 95.613281 271.566406 96.585938 269.90625 96.675781 C 269.5625 96.691406 269.222656 96.738281 268.886719 96.820312 C 268.554688 96.902344 268.230469 97.011719 267.917969 97.15625 C 267.601562 97.300781 267.308594 97.472656 267.027344 97.671875 C 266.75 97.875 266.492188 98.097656 266.253906 98.351562 C 266.019531 98.601562 265.808594 98.871094 265.628906 99.164062 C 265.445312 99.457031 265.292969 99.761719 265.167969 100.082031 C 265.046875 100.40625 264.953125 100.734375 264.894531 101.074219 C 264.835938 101.414062 264.808594 101.753906 264.816406 102.097656 C 264.824219 102.441406 264.863281 102.78125 264.9375 103.117188 C 265.011719 103.453125 265.117188 103.78125 265.253906 104.097656 C 265.390625 104.410156 265.554688 104.710938 265.75 104.996094 C 265.945312 105.277344 266.164062 105.542969 266.410156 105.78125 C 266.65625 106.023438 266.925781 106.238281 267.210938 106.425781 C 267.5 106.617188 267.800781 106.773438 268.121094 106.90625 C 268.441406 107.035156 268.769531 107.132812 269.105469 107.199219 C 269.445312 107.265625 269.785156 107.300781 270.128906 107.300781 Z M 270.128906 107.300781 " fill-opacity="1" fill-rule="nonzero"/><path fill="#000000" d="M 316.394531 279.703125 C 303.378906 272.734375 298.824219 272.027344 283.945312 281.082031 C 275.265625 286.371094 269.871094 280.132812 268.867188 278.808594 C 268.660156 278.527344 268.425781 278.269531 268.167969 278.039062 C 267.914062 277.804688 267.632812 277.597656 267.335938 277.417969 C 267.039062 277.238281 266.726562 277.089844 266.398438 276.96875 C 266.070312 276.851562 265.734375 276.765625 265.390625 276.714844 C 265.046875 276.664062 264.699219 276.644531 264.351562 276.660156 C 264.003906 276.675781 263.660156 276.726562 263.324219 276.808594 C 262.984375 276.890625 262.660156 277.007812 262.34375 277.152344 C 262.027344 277.300781 261.730469 277.476562 261.449219 277.683594 C 261.167969 277.890625 260.910156 278.121094 260.675781 278.378906 C 260.441406 278.632812 260.230469 278.910156 260.050781 279.207031 C 259.871094 279.503906 259.71875 279.816406 259.601562 280.144531 C 259.480469 280.46875 259.394531 280.804688 259.339844 281.148438 C 259.285156 281.492188 259.265625 281.839844 259.28125 282.1875 C 259.296875 282.535156 259.34375 282.875 259.425781 283.214844 C 259.507812 283.554688 259.621094 283.878906 259.765625 284.195312 C 259.914062 284.511719 260.085938 284.8125 260.292969 285.09375 C 263.03125 288.855469 269.1875 293.859375 277.308594 293.859375 C 279.46875 293.820312 281.582031 293.488281 283.652344 292.859375 C 285.71875 292.230469 287.664062 291.332031 289.480469 290.160156 C 295.554688 286.460938 298.839844 285.011719 301.203125 284.992188 C 303.476562 284.960938 306.050781 286.222656 311.375 289.074219 C 311.683594 289.238281 312.003906 289.371094 312.335938 289.46875 C 312.671875 289.570312 313.011719 289.640625 313.359375 289.671875 C 313.707031 289.707031 314.054688 289.707031 314.398438 289.671875 C 314.746094 289.640625 315.085938 289.570312 315.421875 289.46875 C 315.753906 289.367188 316.074219 289.234375 316.382812 289.070312 C 316.691406 288.90625 316.980469 288.714844 317.25 288.492188 C 317.519531 288.273438 317.765625 288.027344 317.984375 287.757812 C 318.207031 287.488281 318.402344 287.199219 318.566406 286.894531 C 318.730469 286.585938 318.863281 286.265625 318.964844 285.933594 C 319.066406 285.597656 319.132812 285.257812 319.167969 284.914062 C 319.203125 284.566406 319.203125 284.21875 319.171875 283.871094 C 319.136719 283.523438 319.070312 283.183594 318.96875 282.851562 C 318.867188 282.515625 318.734375 282.195312 318.570312 281.890625 C 318.410156 281.582031 318.214844 281.292969 317.996094 281.023438 C 317.773438 280.753906 317.53125 280.507812 317.261719 280.285156 C 316.992188 280.0625 316.703125 279.871094 316.394531 279.703125 Z M 316.394531 279.703125 " fill-opacity="1" fill-rule="nonzero"/><path fill="#000000" d="M 82.609375 118.410156 C 86.027344 120.023438 89.625 120.855469 93.40625 120.90625 C 95.242188 120.925781 97.046875 120.6875 98.816406 120.1875 C 100.582031 119.6875 102.246094 118.945312 103.796875 117.964844 C 105.109375 117.101562 106.292969 116.09375 107.347656 114.933594 C 108.402344 113.773438 109.296875 112.5 110.027344 111.117188 C 110.761719 109.730469 111.3125 108.277344 111.679688 106.753906 C 112.046875 105.230469 112.21875 103.6875 112.195312 102.117188 C 112.195312 91.046875 104.460938 83.316406 93.382812 83.316406 C 92.476562 83.316406 91.574219 83.382812 90.675781 83.515625 C 89.777344 83.644531 88.894531 83.839844 88.023438 84.097656 C 87.152344 84.355469 86.304688 84.675781 85.480469 85.058594 C 84.660156 85.4375 83.867188 85.878906 83.105469 86.371094 C 82.34375 86.867188 81.625 87.417969 80.945312 88.015625 C 80.261719 88.617188 79.628906 89.261719 79.039062 89.953125 C 78.453125 90.644531 77.917969 91.375 77.4375 92.144531 C 76.953125 92.914062 76.53125 93.710938 76.164062 94.542969 C 72.914062 101.914062 74.683594 110.371094 80.894531 117.160156 C 81.382812 117.691406 81.953125 118.109375 82.609375 118.410156 Z M 85.894531 98.828125 C 86.214844 98.101562 86.632812 97.4375 87.144531 96.832031 C 87.660156 96.226562 88.25 95.707031 88.914062 95.273438 C 89.578125 94.839844 90.292969 94.511719 91.050781 94.285156 C 91.8125 94.058594 92.589844 93.945312 93.382812 93.945312 C 100.765625 93.945312 101.5625 99.660156 101.5625 102.117188 C 101.585938 102.796875 101.527344 103.464844 101.382812 104.128906 C 101.238281 104.789062 101.011719 105.421875 100.703125 106.027344 C 100.394531 106.628906 100.019531 107.183594 99.570312 107.691406 C 99.121094 108.199219 98.613281 108.644531 98.050781 109.023438 C 95.480469 110.671875 91.953125 110.71875 88.039062 109.171875 C 85.269531 105.746094 84.484375 102.023438 85.894531 98.828125 Z M 85.894531 98.828125 " fill-opacity="1" fill-rule="nonzero"/><g clip-path="url(#9cd96a75dd)"><path fill="#000000" d="M 346.300781 155.433594 C 345.394531 155.433594 344.488281 155.5 343.59375 155.628906 C 342.695312 155.761719 341.808594 155.953125 340.941406 156.214844 C 340.070312 156.472656 339.222656 156.792969 338.398438 157.171875 C 337.574219 157.554688 336.78125 157.992188 336.023438 158.488281 C 335.261719 158.984375 334.542969 159.53125 333.859375 160.132812 C 333.179688 160.730469 332.546875 161.375 331.957031 162.066406 C 331.371094 162.757812 330.835938 163.488281 330.351562 164.257812 C 329.871094 165.027344 329.445312 165.828125 329.082031 166.65625 C 325.832031 174.027344 327.597656 182.484375 333.8125 189.277344 C 334.296875 189.808594 334.871094 190.222656 335.523438 190.523438 C 338.941406 192.136719 342.542969 192.96875 346.320312 193.019531 C 348.160156 193.042969 349.964844 192.800781 351.730469 192.300781 C 353.5 191.800781 355.160156 191.058594 356.714844 190.078125 C 358.027344 189.21875 359.207031 188.207031 360.261719 187.046875 C 361.316406 185.890625 362.210938 184.617188 362.945312 183.230469 C 363.679688 181.847656 364.230469 180.394531 364.597656 178.871094 C 364.964844 177.347656 365.136719 175.800781 365.113281 174.234375 C 365.113281 163.164062 357.375 155.433594 346.300781 155.433594 Z M 350.96875 181.136719 C 348.398438 182.789062 344.871094 182.835938 340.957031 181.289062 C 338.1875 177.863281 337.402344 174.136719 338.8125 170.941406 C 339.132812 170.21875 339.546875 169.550781 340.0625 168.945312 C 340.574219 168.34375 341.164062 167.824219 341.832031 167.390625 C 342.496094 166.957031 343.207031 166.625 343.96875 166.398438 C 344.730469 166.175781 345.507812 166.0625 346.300781 166.058594 C 353.683594 166.058594 354.480469 171.777344 354.480469 174.234375 C 354.503906 174.910156 354.445312 175.582031 354.300781 176.242188 C 354.152344 176.902344 353.925781 177.535156 353.621094 178.140625 C 353.3125 178.746094 352.933594 179.300781 352.484375 179.808594 C 352.035156 180.316406 351.53125 180.757812 350.96875 181.136719 Z M 350.96875 181.136719 " fill-opacity="1" fill-rule="nonzero"/></g></svg>