<svg xmlns="http://www.w3.org/2000/svg" xmlns:xlink="http://www.w3.org/1999/xlink" width="500" zoomAndPan="magnify" viewBox="0 0 375 374.999991" height="500" preserveAspectRatio="xMidYMid meet" version="1.0"><path fill="#000000" d="M 373.117188 296.726562 C 372.378906 295.496094 296.644531 171.859375 284.117188 143.957031 C 271.34375 117.609375 284.851562 115.398438 293.941406 96.007812 C 300.984375 80.871094 296.5625 72.359375 283.789062 68.921875 L 283.789062 45.765625 C 283.789062 43.476562 281.988281 41.675781 279.695312 41.675781 C 277.402344 41.675781 275.601562 43.476562 275.601562 45.765625 L 275.601562 68.269531 C 264.792969 68.023438 249.152344 78.988281 244.324219 84.0625 C 239.492188 78.988281 223.9375 68.023438 213.128906 68.269531 L 213.128906 45.765625 C 213.128906 43.476562 211.328125 41.675781 209.035156 41.675781 C 206.742188 41.675781 204.941406 43.476562 204.941406 45.765625 L 204.941406 68.921875 C 182.503906 74.078125 193.066406 96.5 203.300781 110 C 218.203125 127.019531 204.039062 144.9375 191.757812 168.421875 L 191.757812 107.871094 C 191.839844 101 189.300781 90.769531 184.0625 87.332031 C 182.996094 86.679688 175.464844 82.097656 162.035156 76.777344 C 144.433594 69.742188 133.789062 60.984375 127.566406 49.039062 C 126.910156 47.8125 125.519531 47.15625 124.125 47.074219 C 124.125 47.074219 67.304688 47.074219 67.304688 47.074219 C 65.746094 47.074219 64.355469 47.976562 63.617188 49.285156 C 57.640625 61.066406 46.753906 69.824219 29.394531 76.777344 C 16.046875 82.097656 8.433594 86.761719 7.613281 87.25 C 2.128906 90.605469 -0.328125 100.917969 -0.328125 107.871094 C -0.328125 107.871094 -0.328125 284.53125 -0.328125 284.53125 C -0.328125 286.824219 1.472656 288.625 3.765625 288.625 C 9.660156 288.132812 25.382812 290.179688 30.292969 286.578125 C 31.03125 287.804688 32.261719 288.625 33.816406 288.625 L 47.324219 288.625 C 69.105469 288.625 87.773438 275.367188 95.796875 256.46875 C 101.035156 268.90625 110.945312 278.886719 123.308594 284.289062 L 115.691406 296.808594 C 114.710938 298.441406 114.957031 300.652344 116.429688 301.960938 C 117.820312 303.269531 150.574219 333.136719 175.464844 333.136719 L 313.589844 333.136719 C 338.484375 333.136719 371.152344 303.1875 372.542969 301.960938 C 373.933594 300.652344 374.261719 298.523438 373.28125 296.808594 Z M 183.488281 280.359375 L 168.585938 280.359375 C 164.820312 280.359375 161.707031 277.25 161.707031 273.488281 C 161.953125 252.457031 160.972656 185.441406 162.691406 165.722656 C 164.984375 141.910156 167.03125 115.972656 180.785156 95.761719 C 182.585938 99.28125 183.570312 103.535156 183.570312 107.871094 C 183.570312 107.871094 183.570312 280.441406 183.570312 280.441406 Z M 128.792969 101.898438 L 134.769531 108.035156 L 101.199219 176.933594 C 111.515625 141.910156 125.191406 106.5625 128.058594 69.988281 L 136.734375 89.460938 L 129.039062 95.84375 C 127.238281 97.316406 127.074219 100.261719 128.710938 101.816406 Z M 62.308594 95.84375 L 54.613281 89.460938 L 63.292969 69.988281 C 65.992188 105.90625 79.996094 142.238281 90.148438 176.851562 L 56.578125 107.953125 C 59.199219 104.679688 66.976562 100.261719 62.308594 95.84375 Z M 78.765625 109.917969 C 75.984375 99.851562 73.691406 89.953125 72.625 79.480469 C 76.144531 82.667969 80.160156 86.1875 83.433594 88.480469 L 80.894531 117.609375 C 80.160156 115.074219 79.421875 112.453125 78.765625 110 Z M 95.714844 167.03125 C 93.421875 159.667969 90.3125 149.683594 87.199219 139.210938 L 91.292969 92.488281 C 94.160156 93.144531 97.1875 93.144531 100.136719 92.488281 L 104.230469 139.210938 C 101.117188 149.683594 98.007812 159.667969 95.632812 167.113281 Z M 118.558594 82.34375 C 116.839844 95.023438 114.300781 104.273438 110.617188 117.527344 L 108.078125 88.316406 C 111.761719 85.859375 115.449219 82.832031 118.886719 79.804688 C 118.804688 80.625 118.722656 81.523438 118.640625 82.34375 Z M 101.039062 83.160156 C 93.75 87.414062 87.691406 81.851562 82.042969 76.941406 C 86.871094 68.839844 104.640625 68.597656 109.144531 77.269531 C 106.523438 79.398438 103.820312 81.441406 101.039062 83.078125 Z M 119.949219 66.796875 C 118.394531 68.597656 116.839844 70.3125 115.203125 71.867188 C 107.421875 59.511719 83.515625 60.003906 75.984375 71.378906 C 74.507812 69.988281 72.953125 68.351562 71.398438 66.632812 C 71.152344 61.804688 71.152344 57.792969 71.234375 55.09375 L 120.195312 55.09375 C 120.195312 57.792969 120.195312 61.804688 120.03125 66.714844 Z M 22.761719 280.359375 L 7.859375 280.359375 L 7.859375 107.789062 C 7.859375 103.535156 8.84375 99.199219 10.644531 95.679688 C 15.636719 101.816406 18.503906 110.164062 20.878906 117.773438 C 27.921875 142.320312 29.476562 167.933594 29.640625 193.460938 C 29.640625 193.460938 29.640625 273.40625 29.640625 273.40625 C 29.640625 277.167969 26.527344 280.277344 22.761719 280.277344 Z M 47.242188 280.359375 L 37.828125 280.359375 L 37.828125 229.792969 L 61.328125 229.792969 C 63.617188 229.792969 65.421875 227.992188 65.421875 225.699219 C 65.421875 223.410156 63.617188 221.609375 61.328125 221.609375 L 37.828125 221.609375 C 37.828125 195.097656 38.320312 165.640625 33.980469 139.621094 C 30.949219 122.765625 27.59375 105.089844 17.359375 91.097656 C 26.527344 86.269531 44.460938 80.132812 52.8125 73.339844 L 45.851562 88.96875 C 45.113281 90.605469 45.523438 92.570312 46.996094 93.796875 L 53.628906 99.363281 C 51.746094 101.816406 45.851562 105.253906 47.980469 109.015625 C 47.980469 109.015625 91.621094 198.371094 91.621094 198.371094 C 91.539062 198.535156 91.621094 236.175781 91.621094 236.335938 C 91.457031 260.640625 71.644531 280.441406 47.242188 280.441406 Z M 99.808594 236.257812 C 99.808594 236.257812 99.808594 198.371094 99.808594 198.371094 C 99.808594 198.371094 143.449219 108.9375 143.449219 108.9375 C 145.578125 105.253906 139.601562 101.652344 137.800781 99.28125 C 140.828125 96.253906 147.625 93.144531 145.578125 88.886719 C 145.578125 88.886719 138.617188 73.339844 138.617188 73.339844 C 146.96875 80.050781 164.902344 86.269531 174.070312 91.097656 C 163.835938 105.089844 160.480469 122.765625 157.449219 139.621094 C 153.109375 165.558594 153.519531 195.097656 153.601562 221.609375 L 130.105469 221.609375 C 127.8125 221.609375 126.011719 223.410156 126.011719 225.699219 C 126.011719 227.992188 127.8125 229.792969 130.105469 229.792969 L 153.601562 229.792969 L 153.601562 280.359375 C 125.273438 283.222656 100.464844 265.796875 99.808594 236.257812 Z M 313.429688 324.871094 L 175.300781 324.871094 C 157.207031 324.871094 132.234375 304.824219 124.371094 298.035156 L 131.167969 286.824219 C 138.457031 289.035156 150 288.460938 157.695312 288.542969 C 159.171875 288.542969 160.480469 287.722656 161.21875 286.496094 C 165.476562 289.6875 175.875 288.296875 180.867188 288.542969 L 177.921875 297.296875 C 176.28125 302.371094 183.898438 304.988281 185.699219 299.917969 C 185.699219 299.917969 189.710938 287.96875 189.710938 287.96875 C 192.085938 286.90625 191.921875 283.796875 191.839844 281.585938 C 191.839844 281.585938 230.648438 165.148438 230.648438 165.148438 C 231.386719 163.023438 230.238281 160.648438 228.03125 159.996094 C 225.902344 159.339844 223.609375 160.402344 222.871094 162.613281 L 191.839844 255.730469 L 191.839844 185.035156 C 209.28125 151.648438 229.421875 129.800781 210.179688 105.417969 C 207.722656 101.816406 204.941406 97.726562 202.238281 92.324219 C 198.0625 84.632812 198.71875 77.023438 209.441406 76.449219 C 214.273438 76.125 219.597656 77.269531 223.855469 79.480469 C 236.871094 86.433594 240.964844 92.40625 240.964844 92.488281 C 241.703125 93.632812 243.011719 94.371094 244.40625 94.371094 C 245.632812 94.371094 247.105469 93.714844 247.84375 92.570312 C 247.84375 92.570312 252.101562 86.515625 265.039062 79.480469 C 271.261719 75.960938 284.117188 74.242188 288.375 80.542969 C 290.257812 83.816406 288.535156 88.726562 286.734375 92.242188 C 276.089844 112.863281 262.828125 117.691406 276.746094 147.230469 C 288.535156 173.496094 352.566406 278.558594 364.4375 298.035156 C 356.578125 304.824219 331.6875 324.871094 313.589844 324.871094 Z M 266.019531 162.53125 L 310.972656 297.296875 C 311.707031 299.425781 310.5625 301.714844 308.351562 302.453125 C 306.304688 303.1875 303.847656 302.042969 303.191406 299.835938 L 258.242188 165.066406 C 257.503906 162.941406 258.652344 160.566406 260.863281 159.914062 C 262.992188 159.257812 265.285156 160.320312 266.019531 162.53125 Z M 266.019531 162.53125 " fill-opacity="1" fill-rule="nonzero"/></svg>