<svg xmlns="http://www.w3.org/2000/svg" xmlns:xlink="http://www.w3.org/1999/xlink" width="500" zoomAndPan="magnify" viewBox="0 0 375 374.999991" height="500" preserveAspectRatio="xMidYMid meet" version="1.0"><defs><clipPath id="aaaa846680"><path d="M 0 101 L 139 101 L 139 373.5 L 0 373.5 Z M 0 101 " clip-rule="nonzero"/></clipPath></defs><path fill="#1c1c1b" d="M 165.851562 97.203125 C 166.015625 90.582031 165.71875 71.125 165.019531 38.863281 C 164.71875 26.058594 165.449219 11.15625 180.839844 11.191406 C 184.097656 11.191406 186.222656 11.125 187.25 10.992188 C 188.316406 10.824219 189.246094 10.160156 189.710938 9.195312 C 193.933594 0.914062 200.148438 -1.78125 208.390625 1.144531 C 212.480469 2.609375 215.765625 6.535156 218.492188 9.027344 C 219.394531 9.824219 220.554688 10.191406 221.71875 10.09375 C 234.480469 8.929688 241.292969 14.546875 242.125 26.921875 C 242.191406 28.054688 243.089844 28.949219 244.21875 29.019531 L 252.859375 29.75 C 253.292969 29.78125 253.722656 29.851562 254.15625 30.015625 C 260.96875 32.34375 264.425781 38.097656 264.457031 47.242188 C 264.621094 81.601562 264.691406 106.515625 264.589844 121.914062 C 264.488281 138.378906 264.191406 147.925781 263.691406 150.484375 C 263.195312 152.945312 262.464844 155.339844 261.5 157.636719 C 258.941406 163.789062 254.988281 168.910156 255.382812 179.390625 C 255.648438 186.273438 261.535156 190.996094 260.402344 198.777344 C 260.136719 200.507812 258.308594 201.539062 256.714844 200.808594 L 248.46875 197.113281 C 247.210938 196.585938 245.878906 196.28125 244.550781 196.28125 L 171.667969 196.28125 C 169.941406 196.28125 168.542969 197.683594 168.542969 199.410156 L 168.542969 369.804688 C 168.542969 371.335938 167.3125 372.601562 165.785156 372.667969 L 162.925781 372.765625 C 161.296875 372.832031 159.96875 371.535156 159.933594 369.90625 C 159.636719 349.351562 159.4375 294.667969 159.335938 205.863281 C 159.335938 196.183594 160.898438 190.066406 164.054688 187.539062 C 164.753906 186.972656 165.183594 186.175781 165.285156 185.308594 L 167.046875 171.074219 C 167.214844 169.910156 166.914062 168.714844 166.214844 167.75 C 155.183594 152.414062 144.714844 134.585938 134.84375 114.195312 C 130.125 104.519531 119.089844 89.382812 129.527344 79.40625 C 146.042969 63.574219 158.042969 85.5625 164.355469 97.566406 C 164.722656 98.300781 165.816406 98.035156 165.851562 97.203125 M 247.675781 37.53125 C 244.816406 36.800781 242.054688 38.894531 242.023438 41.824219 L 241.558594 87.09375 C 241.523438 89.519531 239.367188 91.382812 236.972656 91.046875 L 235.808594 90.914062 C 233.714844 90.648438 232.152344 88.855469 232.152344 86.757812 L 232.152344 24.628906 C 232.152344 22.132812 230.457031 19.972656 228.066406 19.371094 L 225.109375 18.605469 C 222.316406 17.910156 219.589844 20.003906 219.589844 22.863281 L 219.589844 84.664062 C 219.589844 87.289062 217.332031 89.320312 214.738281 89.054688 L 213.640625 88.921875 C 211.582031 88.722656 210.019531 86.992188 210.019531 84.929688 L 210.019531 15.78125 C 210.019531 12.488281 207.359375 9.824219 204.070312 9.859375 L 202.140625 9.859375 C 199.78125 9.859375 197.855469 11.753906 197.855469 14.117188 L 197.855469 85.761719 C 197.855469 87.589844 196.390625 89.085938 194.566406 89.085938 L 191.339844 89.085938 C 189.515625 89.085938 188.050781 87.621094 188.050781 85.792969 L 188.050781 24.226562 C 188.050781 21.335938 185.492188 19.074219 182.601562 19.4375 L 181.238281 19.605469 C 177.582031 20.070312 174.824219 23.164062 174.824219 26.855469 L 174.824219 103.921875 C 174.824219 105.816406 175.851562 107.613281 177.515625 108.542969 L 191.875 116.859375 C 193.832031 117.992188 194.828125 120.285156 194.265625 122.480469 L 193.769531 124.410156 C 193.238281 126.570312 190.542969 127.304688 188.949219 125.738281 C 184.160156 121.050781 177.78125 118.089844 169.804688 116.792969 C 167.777344 116.460938 165.949219 115.328125 164.785156 113.601562 L 145.015625 84.164062 C 143.746094 82.300781 141.253906 81.769531 139.363281 83 L 138.566406 83.53125 C 135.375 85.59375 134.074219 89.652344 135.507812 93.210938 C 144.480469 115.363281 154.382812 134.820312 165.222656 151.617188 C 168.308594 156.4375 171.867188 160.53125 175.820312 163.890625 C 176.785156 164.6875 178.015625 165.121094 179.246094 165.121094 L 246.609375 165.121094 C 247.542969 165.121094 248.371094 164.6875 248.90625 163.957031 C 253.191406 158.203125 255.316406 151.648438 255.351562 144.367188 C 255.484375 113.332031 255.484375 80.273438 255.382812 45.183594 C 255.382812 41.824219 253.125 38.929688 249.867188 38.097656 L 247.675781 37.53125 M 247.515625 175.59375 C 247.507812 174.464844 246.609375 173.535156 245.457031 173.527344 L 176.53125 173.410156 C 175.390625 173.402344 174.457031 174.332031 174.46875 175.464844 L 174.449219 185.042969 C 174.457031 186.175781 175.351562 187.105469 176.507812 187.109375 L 245.433594 187.234375 C 246.578125 187.238281 247.507812 186.308594 247.5 185.175781 Z M 247.515625 175.59375 " fill-opacity="1" fill-rule="nonzero"/><g clip-path="url(#aaaa846680)"><path fill="#1c1c1b" d="M 117.628906 132.09375 C 124.636719 129.632812 130.324219 131.296875 134.644531 137.117188 C 137.003906 140.273438 138.132812 146.460938 138.101562 155.640625 C 137.898438 208.191406 137.800781 234.9375 137.835938 235.863281 C 138.101562 246.707031 136.738281 255.191406 133.710938 261.277344 C 130.421875 267.929688 128.859375 272.851562 129.058594 276.011719 C 129.558594 283.691406 130.65625 289.050781 132.316406 292.078125 C 133.746094 294.667969 134.511719 297.832031 134.644531 301.523438 C 135.4375 324.472656 135.507812 347.320312 134.84375 370.070312 C 134.777344 371.535156 133.613281 372.667969 132.152344 372.667969 L 129.160156 372.667969 C 127.597656 372.667969 126.332031 371.402344 126.332031 369.839844 L 126.332031 301.320312 C 126.332031 299.527344 124.871094 298.0625 123.042969 298.0625 L 44.941406 298.0625 C 43.179688 298.0625 41.785156 299.460938 41.753906 301.222656 L 40.6875 371.304688 C 40.65625 372.699219 39.394531 373.730469 38.03125 373.464844 L 37.035156 373.296875 C 35.40625 373 34.210938 371.570312 34.175781 369.90625 C 33.976562 348.449219 33.679688 327.699219 33.242188 307.578125 C 33.113281 300.558594 34.839844 292.972656 38.398438 284.757812 C 42.050781 276.308594 40.257812 269.59375 33.710938 261.078125 C 25.167969 250 15.792969 232.40625 5.625 208.328125 C -0.15625 194.621094 -3.878906 187.539062 7.484375 177.492188 C 19.949219 166.417969 32.847656 190.765625 38.960938 200.578125 C 39.527344 201.472656 40.921875 201.007812 40.855469 199.945312 C 39.195312 175.496094 38.859375 150.71875 39.890625 125.605469 C 40.089844 120.851562 42.648438 117.191406 47.601562 114.566406 C 50.625 112.933594 54.414062 113.601562 58.902344 113.667969 C 60.097656 113.667969 61.195312 113.066406 61.828125 112.070312 C 69.835938 99.332031 82.929688 97.46875 91.636719 111.804688 C 92.105469 112.570312 93.066406 112.902344 93.929688 112.601562 C 98.652344 110.871094 103.667969 109.976562 107.558594 113.101562 C 113.773438 118.089844 116.597656 123.976562 115.964844 130.761719 C 115.867188 131.691406 116.765625 132.390625 117.628906 132.09375 M 122.046875 139.007812 C 119.023438 137.582031 115.53125 139.777344 115.53125 143.132812 L 115.53125 189.101562 C 115.53125 191.394531 113.339844 193.09375 111.078125 192.527344 L 109.351562 192.09375 C 107.457031 191.597656 106.128906 189.898438 106.128906 187.9375 L 106.128906 126.667969 C 106.128906 123.644531 104.101562 120.984375 101.175781 120.25 L 100.078125 119.984375 C 96.355469 119.019531 92.734375 121.847656 92.734375 125.671875 L 92.734375 186.507812 C 92.734375 188.5 91.136719 190.097656 89.175781 190.132812 L 88.082031 190.132812 C 85.554688 190.164062 83.496094 188.136719 83.496094 185.609375 L 83.496094 116.328125 C 83.496094 113.699219 81.367188 111.570312 78.742188 111.570312 L 76.914062 111.570312 C 73.65625 111.570312 71 114.230469 71 117.492188 L 71.164062 185.273438 C 71.195312 187.703125 69.203125 189.699219 66.777344 189.699219 L 66.28125 189.699219 C 64.152344 189.730469 62.390625 188.003906 62.390625 185.875 L 62.195312 128 C 62.15625 124.308594 59.101562 121.382812 55.445312 121.546875 L 55.046875 121.546875 C 51.390625 121.648438 48.496094 124.644531 48.496094 128.300781 L 48.730469 204.898438 C 48.761719 207.261719 49.996094 209.425781 52.023438 210.585938 L 64.453125 217.773438 C 66.679688 219.035156 68.042969 221.398438 68.042969 223.957031 L 68.042969 225.15625 C 68.042969 226.683594 66.414062 227.71875 65.015625 227.050781 L 41.019531 215.710938 C 39.558594 215.011719 38.328125 213.945312 37.433594 212.648438 C 26.960938 197.515625 20.917969 188.800781 19.21875 186.507812 C 17.15625 183.746094 13.269531 183.347656 11.207031 185.707031 C 8.917969 188.300781 8.617188 191.925781 10.3125 196.550781 C 18.6875 219.167969 31.117188 241.953125 47.632812 264.871094 C 48.398438 265.933594 49.628906 266.566406 50.957031 266.566406 L 117.425781 266.566406 C 120.417969 266.566406 123.144531 264.769531 124.308594 261.972656 C 127.996094 253.160156 129.625 244.210938 129.191406 235.203125 C 128.992188 230.976562 128.824219 201.371094 128.726562 146.460938 C 128.726562 143.832031 127.199219 141.4375 124.808594 140.308594 L 122.046875 139.007812 M 121.25 278.074219 C 121.25 276.808594 120.253906 275.808594 118.992188 275.808594 L 50.722656 275.808594 C 49.496094 275.808594 48.53125 276.742188 48.464844 277.972656 L 48.03125 286.757812 C 47.96875 288.015625 48.996094 289.113281 50.257812 289.113281 L 118.992188 289.113281 C 120.253906 289.113281 121.25 288.117188 121.25 286.855469 Z M 121.25 278.074219 " fill-opacity="1" fill-rule="nonzero"/></g><path fill="#1c1c1b" d="M 355.554688 164.355469 C 364.59375 160.894531 371.273438 164.15625 375.558594 174.167969 C 376.09375 175.398438 376.390625 176.726562 376.390625 178.089844 L 376.390625 280.632812 C 376.390625 283.0625 375.925781 285.457031 375.027344 287.71875 L 369.082031 302.585938 C 368.683594 303.585938 368.449219 304.648438 368.378906 305.710938 C 367.882812 314.195312 369.246094 321.148438 372.4375 326.632812 C 373.234375 327.996094 373.667969 329.527344 373.667969 331.125 L 374.097656 368.476562 C 374.132812 370.335938 372.601562 371.902344 370.742188 371.933594 L 368.113281 371.96875 C 366.621094 371.96875 365.390625 370.769531 365.390625 369.273438 L 364.960938 333.949219 C 364.960938 332.488281 363.761719 331.324219 362.296875 331.324219 L 284.828125 331.324219 C 282.734375 331.324219 281.042969 333.019531 281.042969 335.082031 L 281.042969 368.808594 C 281.042969 370.671875 279.414062 372.101562 277.550781 371.871094 L 275.492188 371.636719 C 273.597656 371.402344 272.203125 369.769531 272.167969 367.878906 L 271.800781 336.546875 C 271.769531 332.054688 272.796875 327.628906 274.859375 323.640625 C 279.8125 313.960938 280.976562 306.574219 274.757812 297.332031 C 268.910156 288.617188 262.433594 281.066406 258.542969 272.820312 C 250.332031 255.222656 244.484375 242.21875 241.027344 233.769531 C 234.8125 218.636719 242.6875 205.332031 259.902344 208.359375 C 261.335938 208.625 262.5625 209.457031 263.359375 210.683594 L 277.75 232.835938 C 278.316406 233.738281 279.742188 233.273438 279.679688 232.207031 C 278.914062 220.535156 278.21875 199.277344 277.515625 168.480469 C 277.152344 152.878906 284.332031 145.761719 298.992188 147.125 C 300.085938 147.226562 301.148438 146.695312 301.714844 145.761719 C 306.035156 138.511719 311.949219 135.21875 319.460938 135.851562 C 320.027344 135.886719 320.59375 136.152344 320.988281 136.582031 L 330.660156 146.226562 C 331.226562 146.792969 332.125 146.894531 332.789062 146.460938 C 343.453125 139.410156 354.191406 153.144531 353.625 162.957031 C 353.5625 163.988281 354.589844 164.722656 355.554688 164.355469 M 360.804688 172.402344 C 357.78125 170.972656 354.292969 173.167969 354.292969 176.527344 L 354.191406 222.464844 C 354.191406 224.789062 351.996094 226.453125 349.738281 225.886719 L 348.011719 225.453125 C 346.117188 224.957031 344.785156 223.257812 344.785156 221.296875 L 344.917969 160.03125 C 344.917969 157.003906 342.890625 154.375 340 153.613281 L 338.902344 153.347656 C 335.179688 152.382812 331.558594 155.175781 331.523438 159.035156 L 331.425781 219.832031 C 331.394531 221.828125 329.828125 223.425781 327.835938 223.460938 L 326.738281 223.460938 C 324.246094 223.460938 322.1875 221.429688 322.1875 218.902344 L 322.320312 149.652344 C 322.320312 147.027344 320.191406 144.898438 317.566406 144.898438 L 315.738281 144.898438 C 312.480469 144.898438 309.824219 147.527344 309.824219 150.785156 L 309.855469 218.570312 C 309.855469 221 307.894531 222.960938 305.46875 222.960938 L 304.96875 222.960938 C 302.808594 222.992188 301.082031 221.265625 301.082031 219.136719 L 301.015625 161.292969 C 300.984375 157.601562 297.925781 154.675781 294.269531 154.808594 L 293.867188 154.808594 C 290.214844 154.910156 287.324219 157.902344 287.324219 161.5625 L 287.390625 238.125 C 287.390625 240.488281 288.652344 242.648438 290.683594 243.816406 L 303.078125 251.03125 C 305.304688 252.296875 306.667969 254.65625 306.667969 257.21875 L 306.667969 258.414062 C 306.632812 259.945312 305.035156 260.980469 303.609375 260.308594 L 279.648438 248.902344 C 278.21875 248.203125 276.953125 247.175781 276.089844 245.84375 C 265.65625 230.710938 259.605469 221.996094 257.910156 219.667969 C 255.882812 216.910156 251.996094 216.503906 249.933594 218.871094 C 247.605469 221.460938 247.308594 225.054688 249.003906 229.710938 C 257.3125 252.328125 269.707031 275.113281 286.160156 298.0625 C 286.921875 299.128906 288.1875 299.757812 289.484375 299.757812 L 355.917969 299.890625 C 358.941406 299.921875 361.636719 298.09375 362.832031 295.335938 C 366.519531 286.523438 368.152344 277.609375 367.75 268.59375 C 367.550781 264.335938 367.484375 234.765625 367.484375 179.886719 C 367.484375 177.226562 365.957031 174.832031 363.5625 173.703125 L 360.804688 172.402344 M 359.601562 311.402344 C 359.609375 310.269531 358.675781 309.335938 357.535156 309.34375 L 289.335938 309.464844 C 288.1875 309.472656 287.289062 310.402344 287.28125 311.53125 L 287.300781 320.445312 C 287.289062 321.578125 288.222656 322.511719 289.363281 322.5 L 357.558594 322.382812 C 358.710938 322.375 359.609375 321.445312 359.617188 320.316406 Z M 359.601562 311.402344 " fill-opacity="1" fill-rule="nonzero"/><path fill="#1c1c1b" d="M 260.589844 368.6875 C 260.570312 370.570312 259.074219 372.066406 257.1875 372.070312 L 255.328125 372.0625 C 253.453125 372.066406 251.929688 370.539062 251.949219 368.660156 L 252.242188 285.710938 C 252.261719 283.824219 253.757812 282.332031 255.640625 282.324219 L 257.5 282.332031 C 259.375 282.332031 260.898438 283.859375 260.878906 285.738281 Z M 260.589844 368.6875 " fill-opacity="1" fill-rule="nonzero"/></svg>