<svg xmlns="http://www.w3.org/2000/svg" xmlns:xlink="http://www.w3.org/1999/xlink" width="500" zoomAndPan="magnify" viewBox="0 0 375 374.999991" height="500" preserveAspectRatio="xMidYMid meet" version="1.0"><defs><clipPath id="307b4f9fe5"><path d="M 0 4.6875 L 375 4.6875 L 375 370.6875 L 0 370.6875 Z M 0 4.6875 " clip-rule="nonzero"/></clipPath></defs><g clip-path="url(#307b4f9fe5)"><path fill="#000000" d="M 356.300781 161.789062 L 355.933594 348.609375 C 355.90625 363.984375 342.097656 370.503906 330.429688 370.507812 L 44.761719 370.554688 C 31.378906 370.554688 18.519531 361.460938 18.476562 347.226562 L 18.042969 200.222656 L 18.050781 165.417969 C 18.054688 151.320312 0 159.820312 0.03125 143.039062 L 0.109375 100.121094 C 0.125 91.910156 7.503906 83.816406 15.386719 83.644531 L 63.792969 82.59375 C 49.175781 57.914062 59.769531 43.789062 73.246094 20.972656 C 81.714844 6.632812 99.230469 0.859375 115.226562 7.578125 C 134.980469 15.878906 151.859375 30.660156 165.921875 47.269531 C 172.054688 54.515625 183.8125 46.171875 204.625 50.097656 L 226.910156 28.457031 C 244.945312 10.945312 281.59375 -9.007812 299.195312 18.636719 C 314.449219 42.59375 326.65625 57.617188 310.523438 82.921875 L 359.0625 83.828125 C 367.558594 83.988281 374.941406 92.003906 374.960938 99.925781 L 375.082031 143.207031 C 375.125 158.605469 356.316406 153.9375 356.300781 161.792969 Z M 153.789062 76.957031 L 160.304688 59.945312 C 149.804688 46.335938 106.242188 4.445312 91.042969 20.238281 C 85.515625 25.980469 81.480469 32.832031 77.140625 40.957031 C 94.394531 44.921875 108.664062 48.261719 122.476562 57.046875 Z M 298.328125 41.441406 C 293.011719 32.542969 289.402344 26.535156 283.839844 20.300781 C 269.527344 4.25 224.628906 46 214.160156 58.484375 L 219.445312 76.71875 C 251.53125 57.972656 262.1875 46.539062 298.328125 41.441406 Z M 138.003906 82.148438 C 122.683594 71.210938 110.449219 64.660156 93.585938 57.707031 C 83.023438 53.355469 67.347656 58.082031 68.347656 62.308594 C 73.800781 85.402344 115.496094 85.210938 138 82.148438 Z M 272.386719 83.058594 C 292.089844 83.503906 310.53125 67.558594 304.90625 59.820312 C 294.464844 45.457031 250.019531 71.070312 237.015625 82.261719 Z M 207.609375 82.882812 C 208.019531 65.0625 198.839844 60.566406 185.980469 60.851562 C 180.773438 60.96875 172.75 63.855469 170.25 67.867188 C 168.296875 71.007812 167.949219 79.078125 169.507812 83.097656 Z M 104.6875 139.878906 C 114.523438 125.273438 123.742188 114.054688 135.492188 101.359375 L 133.953125 96.289062 L 19.085938 96.121094 C 16.359375 96.117188 12.042969 101.023438 12.054688 103.28125 L 12.277344 139.621094 C 12.289062 141.34375 17.050781 144.777344 19.179688 144.773438 L 94.484375 144.65625 C 97.929688 144.648438 103.199219 142.089844 104.691406 139.878906 Z M 206.597656 136.832031 L 205.742188 96.722656 L 173.714844 96.09375 C 172.464844 96.070312 167.773438 100.0625 167.792969 101.496094 L 168.402344 143.78125 L 199.054688 144.796875 C 201.589844 144.878906 206.652344 139.46875 206.597656 136.832031 Z M 362.867188 136.792969 L 362.828125 103.160156 C 362.824219 101.109375 358.679688 96.105469 356.074219 96.113281 L 241.601562 96.449219 C 238.84375 96.457031 240.855469 103.003906 242.105469 104.507812 C 253.199219 117.855469 263.054688 130.671875 273.285156 144.515625 L 356.535156 144.425781 C 358.953125 144.421875 362.867188 139 362.863281 136.792969 Z M 258.933594 193.503906 C 260.382812 190.683594 266.484375 189.0625 269.910156 189.121094 L 281.546875 189.324219 C 263.878906 153.082031 249.367188 128.007812 218.707031 99.511719 C 213.085938 165.761719 224.757812 145.457031 238.703125 178.261719 L 251.40625 208.152344 Z M 124.289062 205.390625 L 139.964844 171.335938 C 143.484375 163.6875 152.082031 152.855469 154.980469 145.285156 C 156.246094 130.03125 155.851562 118.515625 155.355469 101.828125 C 129.859375 118.128906 104.851562 162.859375 93.042969 189.515625 L 104.285156 189.121094 C 110.199219 188.914062 115.714844 190.785156 118.011719 196.746094 L 124.285156 205.390625 Z M 118.0625 227.9375 L 108.765625 206.917969 C 107.714844 204.539062 101.957031 203.054688 99.660156 203.5625 L 81.636719 207.539062 C 80.492188 207.792969 76.566406 206.039062 75.589844 205.289062 C 74.945312 204.796875 74.613281 200.28125 75.035156 199.308594 L 93.445312 157.210938 L 30.511719 157.207031 L 30.367188 347.121094 C 32.253906 351.480469 38.398438 357.507812 42.652344 357.507812 L 155.769531 357.554688 L 155.542969 174.902344 C 146.6875 183.824219 142.742188 193.113281 138.960938 203.710938 L 130.675781 226.90625 C 130.023438 228.726562 126.664062 232.007812 124.804688 232.582031 C 123.308594 233.046875 118.78125 229.5625 118.0625 227.9375 Z M 206.183594 157.039062 L 167.921875 157.042969 L 167.945312 357.585938 L 206.207031 357.582031 Z M 229.058594 188.519531 C 226.691406 182.433594 222.136719 176.9375 217.871094 173.621094 L 217.707031 357.488281 L 330.25 357.628906 C 335.492188 357.632812 341.046875 353.746094 343.511719 349.035156 L 343.4375 157.378906 L 280.191406 157.273438 L 299.601562 200.273438 C 300.347656 201.921875 299.917969 206.082031 298.710938 206.703125 C 297.910156 207.117188 294.058594 208.242188 293.191406 208.042969 L 271.996094 203.234375 C 266.222656 201.921875 261.71875 218.890625 253.042969 232.355469 C 251.753906 234.359375 244.816406 229.035156 243.910156 226.703125 Z M 229.058594 188.519531 " fill-opacity="1" fill-rule="nonzero"/></g></svg>