<svg xmlns="http://www.w3.org/2000/svg" xmlns:xlink="http://www.w3.org/1999/xlink" width="500" zoomAndPan="magnify" viewBox="0 0 375 374.999991" height="500" preserveAspectRatio="xMidYMid meet" version="1.0"><defs><clipPath id="b00ef74a1e"><path d="M 40 132 L 264 132 L 264 372.046875 L 40 372.046875 Z M 40 132 " clip-rule="nonzero"/></clipPath><clipPath id="a3292804ed"><path d="M 0 3.046875 L 189 3.046875 L 189 215 L 0 215 Z M 0 3.046875 " clip-rule="nonzero"/></clipPath></defs><g clip-path="url(#b00ef74a1e)"><path fill="#000000" d="M 262.824219 154.402344 C 262.601562 147.890625 262.570312 141.011719 260.027344 134.882812 C 259.929688 134.632812 259.792969 134.417969 259.632812 134.230469 C 259.308594 133.351562 258.449219 132.652344 257.296875 132.75 C 235.289062 135.300781 213.027344 141.214844 191.496094 146.273438 C 175.238281 150.089844 142.492188 158.128906 126.273438 162.105469 C 123.890625 162.6875 122.121094 164.847656 122.132812 167.410156 C 122.136719 209.816406 122.199219 284.828125 122.179688 326.554688 C 122.519531 342.449219 107.265625 354.144531 93.253906 358.691406 C 79.363281 363.347656 57.574219 362.40625 51.589844 346.789062 C 49.59375 341.121094 50.867188 334.765625 53.832031 329.460938 C 64.277344 311.535156 87.25 304.496094 107.21875 306.242188 C 109.558594 306.511719 110.5625 303.285156 108.441406 302.195312 C 101.269531 298.574219 92.84375 297.839844 84.957031 298.925781 C 68.988281 301.367188 53.480469 310.433594 45.097656 324.492188 C 37.972656 336.441406 38.5 351.679688 49.046875 361.558594 C 73.847656 384.09375 122.675781 367.632812 131.832031 336.289062 C 132.71875 333.199219 133.082031 329.800781 133.015625 326.554688 C 133.035156 325.472656 132.988281 303.054688 133.015625 301.425781 C 133.019531 284.917969 133.03125 252.972656 133.042969 223.128906 C 133.863281 223.128906 134.683594 223.089844 135.511719 223.019531 C 137.5 222.859375 140.5 222.160156 142.453125 221.800781 C 165.417969 217.082031 188 210.703125 210.769531 205.140625 C 215.304688 203.953125 219.816406 202.664062 224.316406 201.339844 C 226.578125 200.554688 232.386719 199.179688 234.316406 197.84375 C 242.324219 192.527344 234.988281 188.917969 228.816406 190.328125 C 212.695312 193.292969 196.742188 197.496094 180.867188 201.480469 C 167.210938 204.851562 153.488281 207.976562 140.035156 212.109375 C 137.710938 212.796875 135.308594 213.480469 133.046875 214.4375 C 133.054688 197.902344 133.058594 182.59375 133.0625 171.664062 C 150.207031 167.320312 179.007812 159.980469 193.929688 156.019531 C 213.976562 150.773438 234.90625 145.738281 254.421875 138.515625 C 253.070312 143.660156 253.015625 149.15625 252.835938 154.402344 C 251.847656 186.925781 252.566406 219.46875 252.445312 252.003906 C 252.5 258.507812 252.65625 265.015625 252.851562 271.523438 C 252.898438 272.273438 252.933594 273.296875 252.964844 274.453125 C 250.332031 272.027344 247.273438 270.039062 244.167969 268.660156 C 234.3125 264.160156 223.210938 263.714844 212.820312 265.871094 C 192.472656 270.082031 170.804688 286.113281 170.277344 308.628906 C 170.058594 320.695312 178.285156 331.195312 189.148438 335.75 C 199.160156 340.117188 210.289062 340.429688 220.714844 338.148438 C 239.976562 333.917969 263.445312 317.550781 260.027344 295.320312 C 260.675781 293.320312 260.914062 291.34375 260.820312 289.414062 C 261.296875 288.269531 261.609375 287.019531 261.839844 286.160156 C 262.683594 283.101562 262.585938 274.65625 262.804688 271.523438 C 263.453125 252.007812 263.226562 232.484375 263.242188 212.964844 C 263.277344 193.441406 263.570312 173.917969 262.824219 154.402344 Z M 250.222656 306.929688 C 247.726562 310.367188 245.027344 313.675781 241.71875 316.402344 C 228.851562 327.007812 209.355469 332.195312 193.566406 325.714844 C 175.484375 317.691406 179.054688 299.082031 192.09375 287.875 C 201.671875 279.410156 215.09375 274.722656 227.917969 275.21875 C 236 275.5625 244.648438 278.289062 249.714844 284.644531 C 252.328125 287.949219 253.902344 291.277344 255.714844 295.320312 C 254.574219 299.539062 252.789062 303.507812 250.222656 306.929688 Z M 250.222656 306.929688 " fill-opacity="1" fill-rule="nonzero"/></g><path fill="#000000" d="M 374.976562 115.8125 C 374.898438 114.179688 374.074219 112.722656 373.335938 111.332031 C 372.125 109.003906 369.640625 104.320312 368.429688 101.996094 C 361.367188 87.152344 345.015625 77.761719 328.621094 79.558594 C 327.292969 79.6875 324.640625 80.003906 323.320312 80.160156 C 315.425781 81.117188 307.398438 80.277344 299.914062 77.589844 C 295.460938 76 291.304688 73.832031 286.683594 72.699219 C 286.058594 72.136719 285.410156 71.597656 284.703125 71.121094 C 283.136719 70.003906 280.785156 71.234375 280.808594 73.167969 C 280.789062 74.597656 280.972656 75.925781 281.238281 77.207031 C 281.921875 80.855469 283.816406 84.511719 285.355469 87.84375 C 296.183594 110.582031 308.53125 132.554688 320.128906 154.902344 C 322.492188 159.296875 324.953125 163.644531 327.445312 167.976562 C 325.996094 167.730469 324.535156 167.605469 323.105469 167.597656 C 305.464844 167.734375 289.90625 181.195312 283.75 197.242188 C 280.207031 206.476562 279.871094 217.902344 286.113281 226.339844 C 286.496094 226.800781 287.464844 228.027344 287.855469 228.457031 C 288.28125 228.863281 289.417969 229.929688 289.871094 230.332031 C 290.820312 231.089844 291.835938 231.800781 292.867188 232.429688 C 293.410156 232.699219 294.75 233.433594 295.289062 233.679688 C 299.292969 235.347656 303.730469 236.0625 308.042969 235.730469 C 316.769531 235.085938 324.675781 231.242188 331.230469 225.71875 C 343.222656 215.570312 353.753906 195.195312 342.425781 181.058594 C 342.226562 179.316406 341.71875 177.753906 340.964844 176.363281 C 340.988281 174.214844 340.40625 172.261719 339.511719 170.316406 C 332.25 154.28125 323.828125 138.691406 315.640625 123.128906 C 315.632812 123.113281 315.621094 123.097656 315.613281 123.082031 C 317.261719 122.414062 318.894531 121.730469 320.527344 121.039062 C 323.085938 119.992188 325.84375 118.644531 328.390625 117.617188 C 331.96875 117.015625 335.390625 115.632812 339.042969 115.566406 C 344.167969 115.265625 349.28125 116.371094 353.835938 118.675781 C 356.75 120.136719 360.984375 122.296875 363.925781 123.695312 C 369.21875 126.171875 375.5625 121.609375 374.976562 115.8125 Z M 374.976562 115.8125 " fill-opacity="1" fill-rule="nonzero"/><g clip-path="url(#a3292804ed)"><path fill="#000000" d="M 49.304688 214.5 C 70.226562 212.75 97.160156 198.84375 96.921875 174.976562 C 97.816406 173.007812 98.300781 170.984375 98.460938 168.964844 C 99.132812 167.765625 99.632812 166.390625 100.011719 165.5 C 100.625 163.828125 101.007812 162.121094 101.296875 160.402344 C 105.515625 136.441406 108.535156 112.136719 111.71875 88.035156 C 111.78125 87.570312 111.847656 87.101562 111.910156 86.632812 C 117.769531 87.949219 124.007812 89.148438 129.753906 90.238281 C 129.753906 90.238281 131.535156 90.566406 131.535156 90.566406 C 132.082031 90.648438 132.734375 90.78125 133.238281 91.003906 C 136.214844 92.109375 139.605469 93.089844 142.480469 94.371094 C 150.820312 98.078125 157.851562 104.605469 162.140625 112.644531 C 162.707031 113.699219 164.101562 116.304688 164.699219 117.40625 L 168.132812 123.78125 C 168.132812 123.78125 169 125.371094 169 125.371094 C 170.125 127.78125 172.300781 129.808594 174.933594 130.4375 C 179.730469 131.792969 185.117188 128.394531 185.882812 123.476562 C 186.246094 121.109375 186.988281 115.089844 187.335938 112.667969 C 187.335938 112.667969 188.285156 105.488281 188.285156 105.488281 C 191.265625 86.871094 183.507812 66.976562 168.464844 55.519531 C 164.917969 52.578125 159.410156 49.882812 155.375 47.585938 C 147.570312 43.277344 140.507812 37.554688 134.785156 30.625 C 131.890625 27.191406 129.417969 23.363281 127.144531 19.496094 C 125.117188 16.160156 122.597656 11.472656 120.15625 8.195312 C 120.011719 7.050781 119.8125 5.914062 119.542969 4.785156 C 119.09375 2.730469 116.160156 2.367188 115.183594 4.207031 C 111.785156 10.40625 110.800781 17.6875 109.660156 24.546875 C 104.097656 58.914062 100.222656 93.53125 95.515625 128.027344 C 94.648438 134.933594 93.890625 141.859375 93.164062 148.785156 C 93.09375 149.753906 92.949219 151.128906 92.785156 152.671875 C 92.125 151.855469 91.429688 151.066406 90.6875 150.316406 C 84.605469 144.050781 76.261719 140.21875 67.917969 138.503906 C 51.363281 135.179688 33.789062 138.835938 19.765625 148.191406 C 10.15625 154.675781 2.015625 164.457031 0.371094 176.503906 C -1.539062 189.132812 5.628906 201.265625 16.386719 207.554688 C 26.316406 213.558594 38.003906 215.441406 49.304688 214.5 Z M 49.304688 214.5 " fill-opacity="1" fill-rule="nonzero"/></g></svg>