<svg xmlns="http://www.w3.org/2000/svg" xmlns:xlink="http://www.w3.org/1999/xlink" width="500" zoomAndPan="magnify" viewBox="0 0 375 374.999991" height="500" preserveAspectRatio="xMidYMid meet" version="1.0"><defs><clipPath id="e10451f79a"><path d="M 8.710938 8.710938 L 366.007812 8.710938 L 366.007812 366.007812 L 8.710938 366.007812 Z M 8.710938 8.710938 " clip-rule="nonzero"/></clipPath><clipPath id="7e6f377742"><path d="M 8.710938 8.710938 L 366.007812 8.710938 L 366.007812 366.007812 L 8.710938 366.007812 Z M 8.710938 8.710938 " clip-rule="nonzero"/></clipPath><clipPath id="d015eae667"><path d="M 7.8125 7.8125 L 366.898438 7.8125 L 366.898438 366.898438 L 7.8125 366.898438 Z M 7.8125 7.8125 " clip-rule="nonzero"/></clipPath></defs><g clip-path="url(#e10451f79a)"><path fill="#ffffff" d="M 21.9375 7.8125 L 352.773438 7.8125 C 360.578125 7.8125 366.898438 14.132812 366.898438 21.9375 L 366.898438 352.773438 C 366.898438 360.578125 360.578125 366.898438 352.773438 366.898438 L 21.9375 366.898438 C 14.132812 366.898438 7.8125 360.578125 7.8125 352.773438 L 7.8125 21.9375 C 7.8125 14.132812 14.132812 7.8125 21.9375 7.8125 Z M 21.9375 7.8125 " fill-opacity="1" fill-rule="nonzero"/></g><path fill="#000000" d="M 345.425781 118.433594 L 28.925781 118.433594 C 27.429688 118.433594 26.210938 117.214844 26.210938 115.71875 L 26.210938 97.871094 C 26.210938 96.375 27.429688 95.152344 28.925781 95.152344 L 345.425781 95.152344 C 346.921875 95.152344 348.140625 96.375 348.140625 97.871094 L 348.140625 115.71875 C 348.140625 117.214844 346.921875 118.433594 345.425781 118.433594 Z M 345.425781 118.433594 " fill-opacity="1" fill-rule="nonzero"/><path fill="#ffffff" d="M 156.332031 82.765625 L 348.140625 82.765625 L 348.140625 84.957031 L 156.332031 84.957031 Z M 156.332031 82.765625 " fill-opacity="1" fill-rule="nonzero"/><path fill="#000000" d="M 125.367188 84.957031 L 32.648438 84.957031 C 29.09375 84.957031 26.210938 82.070312 26.210938 78.515625 L 26.210938 31.761719 C 26.210938 28.207031 29.09375 25.324219 32.648438 25.324219 L 125.367188 25.324219 C 128.921875 25.324219 131.804688 28.207031 131.804688 31.761719 L 131.804688 78.527344 C 131.792969 82.070312 128.921875 84.957031 125.367188 84.957031 Z M 125.367188 84.957031 " fill-opacity="1" fill-rule="nonzero"/><path fill="#ffffff" d="M 34.050781 112.808594 C 33.464844 112.546875 32.996094 112.175781 32.660156 111.695312 C 32.324219 111.230469 32.148438 110.679688 32.132812 110.054688 L 33.714844 110.054688 C 33.773438 110.582031 33.988281 111.039062 34.371094 111.398438 C 34.757812 111.757812 35.320312 111.949219 36.0625 111.949219 C 36.765625 111.949219 37.328125 111.769531 37.738281 111.421875 C 38.144531 111.074219 38.347656 110.617188 38.347656 110.054688 C 38.347656 109.625 38.226562 109.265625 37.988281 109.003906 C 37.75 108.726562 37.449219 108.523438 37.089844 108.378906 C 36.730469 108.238281 36.253906 108.082031 35.640625 107.925781 C 34.886719 107.734375 34.289062 107.53125 33.847656 107.339844 C 33.390625 107.148438 33.007812 106.835938 32.683594 106.417969 C 32.363281 106 32.207031 105.4375 32.207031 104.730469 C 32.207031 104.105469 32.363281 103.558594 32.671875 103.089844 C 32.984375 102.609375 33.425781 102.238281 34 101.976562 C 34.578125 101.714844 35.222656 101.582031 35.964844 101.582031 C 37.03125 101.582031 37.902344 101.84375 38.574219 102.382812 C 39.257812 102.910156 39.640625 103.617188 39.722656 104.503906 L 38.09375 104.503906 C 38.035156 104.070312 37.808594 103.6875 37.414062 103.351562 C 37.007812 103.019531 36.480469 102.851562 35.820312 102.851562 C 35.199219 102.851562 34.695312 103.007812 34.300781 103.328125 C 33.90625 103.652344 33.714844 104.09375 33.714844 104.671875 C 33.714844 105.089844 33.835938 105.425781 34.0625 105.675781 C 34.300781 105.9375 34.589844 106.128906 34.921875 106.273438 C 35.269531 106.40625 35.75 106.5625 36.359375 106.742188 C 37.113281 106.945312 37.710938 107.148438 38.167969 107.351562 C 38.621094 107.554688 39.015625 107.867188 39.339844 108.285156 C 39.664062 108.703125 39.832031 109.265625 39.832031 109.984375 C 39.832031 110.535156 39.6875 111.0625 39.386719 111.550781 C 39.089844 112.042969 38.65625 112.4375 38.082031 112.738281 C 37.507812 113.035156 36.828125 113.191406 36.046875 113.191406 C 35.304688 113.203125 34.636719 113.074219 34.050781 112.808594 Z M 34.050781 112.808594 " fill-opacity="1" fill-rule="nonzero"/><path fill="#ffffff" d="M 43.46875 101.738281 L 43.46875 108.917969 C 43.46875 109.925781 43.722656 110.679688 44.210938 111.167969 C 44.703125 111.660156 45.398438 111.898438 46.269531 111.898438 C 47.144531 111.898438 47.828125 111.660156 48.316406 111.167969 C 48.808594 110.679688 49.058594 109.9375 49.058594 108.917969 L 49.058594 101.738281 L 50.542969 101.738281 L 50.542969 108.90625 C 50.542969 109.851562 50.351562 110.644531 49.96875 111.289062 C 49.585938 111.933594 49.070312 112.414062 48.425781 112.726562 C 47.777344 113.035156 47.046875 113.191406 46.246094 113.191406 C 45.445312 113.191406 44.714844 113.035156 44.066406 112.726562 C 43.421875 112.414062 42.90625 111.933594 42.535156 111.289062 C 42.164062 110.644531 41.972656 109.851562 41.972656 108.90625 L 41.972656 101.738281 Z M 43.46875 101.738281 " fill-opacity="1" fill-rule="nonzero"/><path fill="#ffffff" d="M 61.949219 113.085938 L 60.464844 113.085938 L 54.503906 104.046875 L 54.503906 113.097656 L 53.019531 113.097656 L 53.019531 101.726562 L 54.503906 101.726562 L 60.464844 110.75 L 60.464844 101.726562 L 61.949219 101.726562 Z M 61.949219 113.085938 " fill-opacity="1" fill-rule="nonzero"/><path fill="#ffffff" d="M 86.992188 101.808594 L 86.992188 113.085938 L 85.507812 113.085938 L 85.507812 104.683594 L 81.761719 113.085938 L 80.71875 113.085938 L 76.960938 104.65625 L 76.960938 113.085938 L 75.476562 113.085938 L 75.476562 101.808594 L 77.066406 101.808594 L 81.234375 111.132812 L 85.398438 101.808594 Z M 86.992188 101.808594 " fill-opacity="1" fill-rule="nonzero"/><path fill="#ffffff" d="M 91.765625 112.460938 C 90.894531 111.972656 90.210938 111.277344 89.707031 110.390625 C 89.207031 109.503906 88.953125 108.511719 88.953125 107.398438 C 88.953125 106.285156 89.207031 105.292969 89.707031 104.40625 C 90.210938 103.519531 90.90625 102.828125 91.765625 102.335938 C 92.640625 101.84375 93.597656 101.59375 94.652344 101.59375 C 95.714844 101.59375 96.6875 101.84375 97.546875 102.335938 C 98.421875 102.828125 99.105469 103.519531 99.605469 104.394531 C 100.109375 105.28125 100.359375 106.273438 100.359375 107.386719 C 100.359375 108.5 100.109375 109.503906 99.605469 110.378906 C 99.105469 111.265625 98.421875 111.949219 97.546875 112.4375 C 96.675781 112.929688 95.714844 113.179688 94.652344 113.179688 C 93.585938 113.203125 92.628906 112.953125 91.765625 112.460938 Z M 96.792969 111.359375 C 97.429688 110.988281 97.929688 110.464844 98.289062 109.78125 C 98.648438 109.097656 98.839844 108.308594 98.839844 107.398438 C 98.839844 106.488281 98.660156 105.6875 98.289062 105.015625 C 97.929688 104.335938 97.429688 103.808594 96.792969 103.449219 C 96.160156 103.078125 95.441406 102.898438 94.640625 102.898438 C 93.835938 102.898438 93.121094 103.078125 92.484375 103.449219 C 91.851562 103.820312 91.359375 104.347656 90.988281 105.015625 C 90.628906 105.699219 90.4375 106.488281 90.4375 107.398438 C 90.4375 108.296875 90.617188 109.097656 90.988281 109.78125 C 91.347656 110.464844 91.851562 110.988281 92.484375 111.359375 C 93.121094 111.730469 93.835938 111.910156 94.628906 111.910156 C 95.441406 111.910156 96.148438 111.730469 96.792969 111.359375 Z M 96.792969 111.359375 " fill-opacity="1" fill-rule="nonzero"/><path fill="#ffffff" d="M 111.230469 113.085938 L 109.746094 113.085938 L 103.785156 104.046875 L 103.785156 113.097656 L 102.300781 113.097656 L 102.300781 101.726562 L 103.785156 101.726562 L 109.746094 110.75 L 109.746094 101.726562 L 111.230469 101.726562 Z M 111.230469 113.085938 " fill-opacity="1" fill-rule="nonzero"/><path fill="#ffffff" d="M 134.570312 101.738281 L 134.570312 102.945312 L 131.46875 102.945312 L 131.46875 113.097656 L 129.984375 113.097656 L 129.984375 102.945312 L 126.875 102.945312 L 126.875 101.738281 Z M 134.570312 101.738281 " fill-opacity="1" fill-rule="nonzero"/><path fill="#ffffff" d="M 137.835938 101.738281 L 137.835938 108.917969 C 137.835938 109.925781 138.089844 110.679688 138.578125 111.167969 C 139.070312 111.660156 139.765625 111.898438 140.636719 111.898438 C 141.511719 111.898438 142.195312 111.660156 142.683594 111.167969 C 143.175781 110.679688 143.425781 109.9375 143.425781 108.917969 L 143.425781 101.738281 L 144.910156 101.738281 L 144.910156 108.90625 C 144.910156 109.851562 144.71875 110.644531 144.335938 111.289062 C 143.953125 111.933594 143.4375 112.414062 142.792969 112.726562 C 142.148438 113.035156 141.417969 113.191406 140.613281 113.191406 C 139.8125 113.191406 139.082031 113.035156 138.4375 112.726562 C 137.789062 112.414062 137.273438 111.933594 136.902344 111.289062 C 136.53125 110.644531 136.339844 109.851562 136.339844 108.90625 L 136.339844 101.738281 Z M 137.835938 101.738281 " fill-opacity="1" fill-rule="nonzero"/><path fill="#ffffff" d="M 148.875 102.933594 L 148.875 106.730469 L 153.015625 106.730469 L 153.015625 107.949219 L 148.875 107.949219 L 148.875 111.863281 L 153.503906 111.863281 L 153.503906 113.085938 L 147.402344 113.085938 L 147.402344 101.714844 L 153.503906 101.714844 L 153.503906 102.933594 Z M 148.875 102.933594 " fill-opacity="1" fill-rule="nonzero"/><path fill="#ffffff" d="M 185.285156 101.738281 L 181.992188 113.097656 L 180.328125 113.097656 L 177.683594 103.953125 L 174.941406 113.097656 L 173.304688 113.109375 L 170.132812 101.738281 L 171.710938 101.738281 L 174.1875 111.371094 L 176.929688 101.738281 L 178.59375 101.738281 L 181.203125 111.335938 L 183.691406 101.738281 Z M 185.285156 101.738281 " fill-opacity="1" fill-rule="nonzero"/><path fill="#ffffff" d="M 188.398438 102.933594 L 188.398438 106.730469 L 192.539062 106.730469 L 192.539062 107.949219 L 188.398438 107.949219 L 188.398438 111.863281 L 193.027344 111.863281 L 193.027344 113.085938 L 186.925781 113.085938 L 186.925781 101.714844 L 193.027344 101.714844 L 193.027344 102.933594 Z M 188.398438 102.933594 " fill-opacity="1" fill-rule="nonzero"/><path fill="#ffffff" d="M 202.03125 102.417969 C 202.941406 102.886719 203.632812 103.542969 204.113281 104.394531 C 204.589844 105.257812 204.84375 106.261719 204.84375 107.421875 C 204.84375 108.585938 204.605469 109.589844 204.113281 110.453125 C 203.632812 111.300781 202.941406 111.960938 202.03125 112.402344 C 201.121094 112.855469 200.054688 113.074219 198.808594 113.074219 L 195.277344 113.074219 L 195.277344 101.714844 L 198.808594 101.714844 C 200.042969 101.738281 201.121094 101.964844 202.03125 102.417969 Z M 202.160156 110.703125 C 202.929688 109.925781 203.324219 108.835938 203.324219 107.433594 C 203.324219 106.023438 202.941406 104.921875 202.160156 104.132812 C 201.382812 103.339844 200.269531 102.945312 198.808594 102.945312 L 196.75 102.945312 L 196.75 111.875 L 198.808594 111.875 C 200.269531 111.863281 201.394531 111.480469 202.160156 110.703125 Z M 202.160156 110.703125 " fill-opacity="1" fill-rule="nonzero"/><path fill="#ffffff" d="M 227.203125 101.738281 L 227.203125 102.945312 L 224.101562 102.945312 L 224.101562 113.097656 L 222.617188 113.097656 L 222.617188 102.945312 L 219.503906 102.945312 L 219.503906 101.738281 Z M 227.203125 101.738281 " fill-opacity="1" fill-rule="nonzero"/><path fill="#ffffff" d="M 237.769531 101.738281 L 237.769531 113.097656 L 236.285156 113.097656 L 236.285156 107.949219 L 230.503906 107.949219 L 230.503906 113.097656 L 229.019531 113.097656 L 229.019531 101.738281 L 230.503906 101.738281 L 230.503906 106.730469 L 236.285156 106.730469 L 236.285156 101.738281 Z M 237.769531 101.738281 " fill-opacity="1" fill-rule="nonzero"/><path fill="#ffffff" d="M 241.746094 101.738281 L 241.746094 108.917969 C 241.746094 109.925781 241.996094 110.679688 242.488281 111.167969 C 242.976562 111.660156 243.671875 111.898438 244.546875 111.898438 C 245.417969 111.898438 246.101562 111.660156 246.59375 111.167969 C 247.082031 110.679688 247.335938 109.9375 247.335938 108.917969 L 247.335938 101.738281 L 248.820312 101.738281 L 248.820312 108.90625 C 248.820312 109.851562 248.628906 110.644531 248.246094 111.289062 C 247.863281 111.933594 247.347656 112.414062 246.699219 112.726562 C 246.054688 113.035156 245.324219 113.191406 244.523438 113.191406 C 243.71875 113.191406 242.988281 113.035156 242.34375 112.726562 C 241.695312 112.414062 241.183594 111.933594 240.8125 111.289062 C 240.441406 110.644531 240.25 109.851562 240.25 108.90625 L 240.25 101.738281 Z M 241.746094 101.738281 " fill-opacity="1" fill-rule="nonzero"/><path fill="#ffffff" d="M 277.941406 101.738281 L 277.941406 102.945312 L 273.007812 102.945312 L 273.007812 106.777344 L 277.019531 106.777344 L 277.019531 107.984375 L 273.007812 107.984375 L 273.007812 113.097656 L 271.523438 113.097656 L 271.523438 101.738281 Z M 277.941406 101.738281 " fill-opacity="1" fill-rule="nonzero"/><path fill="#ffffff" d="M 285.722656 113.085938 L 283.015625 108.441406 L 281.21875 108.441406 L 281.21875 113.085938 L 279.734375 113.085938 L 279.734375 101.726562 L 283.398438 101.726562 C 284.261719 101.726562 284.980469 101.867188 285.578125 102.167969 C 286.164062 102.46875 286.605469 102.863281 286.90625 103.351562 C 287.207031 103.855469 287.347656 104.417969 287.347656 105.066406 C 287.347656 105.84375 287.121094 106.539062 286.667969 107.136719 C 286.210938 107.734375 285.542969 108.128906 284.644531 108.320312 L 287.492188 113.085938 Z M 281.21875 107.253906 L 283.398438 107.253906 C 284.199219 107.253906 284.8125 107.050781 285.207031 106.65625 C 285.613281 106.261719 285.804688 105.734375 285.804688 105.066406 C 285.804688 104.394531 285.601562 103.867188 285.207031 103.496094 C 284.8125 103.125 284.199219 102.945312 283.386719 102.945312 L 281.207031 102.945312 L 281.207031 107.253906 Z M 281.21875 107.253906 " fill-opacity="1" fill-rule="nonzero"/><path fill="#ffffff" d="M 289.648438 101.738281 L 291.132812 101.738281 L 291.132812 113.097656 L 289.648438 113.097656 Z M 289.648438 101.738281 " fill-opacity="1" fill-rule="nonzero"/><path fill="#ffffff" d="M 316.085938 112.808594 C 315.5 112.546875 315.035156 112.175781 314.699219 111.695312 C 314.363281 111.230469 314.183594 110.679688 314.171875 110.054688 L 315.753906 110.054688 C 315.8125 110.582031 316.027344 111.039062 316.410156 111.398438 C 316.792969 111.757812 317.355469 111.949219 318.097656 111.949219 C 318.804688 111.949219 319.367188 111.769531 319.773438 111.421875 C 320.179688 111.074219 320.386719 110.617188 320.386719 110.054688 C 320.386719 109.625 320.265625 109.265625 320.027344 109.003906 C 319.785156 108.726562 319.488281 108.523438 319.128906 108.378906 C 318.769531 108.238281 318.289062 108.082031 317.679688 107.925781 C 316.925781 107.734375 316.328125 107.53125 315.882812 107.339844 C 315.429688 107.148438 315.046875 106.835938 314.722656 106.417969 C 314.398438 106 314.246094 105.4375 314.246094 104.730469 C 314.246094 104.105469 314.398438 103.558594 314.710938 103.089844 C 315.023438 102.609375 315.464844 102.238281 316.039062 101.976562 C 316.613281 101.714844 317.261719 101.582031 318.003906 101.582031 C 319.066406 101.582031 319.941406 101.84375 320.613281 102.382812 C 321.292969 102.910156 321.675781 103.617188 321.761719 104.503906 L 320.132812 104.503906 C 320.074219 104.070312 319.847656 103.6875 319.453125 103.351562 C 319.042969 103.019531 318.515625 102.851562 317.859375 102.851562 C 317.238281 102.851562 316.734375 103.007812 316.339844 103.328125 C 315.945312 103.652344 315.753906 104.09375 315.753906 104.671875 C 315.753906 105.089844 315.871094 105.425781 316.101562 105.675781 C 316.339844 105.9375 316.625 106.128906 316.960938 106.273438 C 317.308594 106.40625 317.789062 106.5625 318.398438 106.742188 C 319.152344 106.945312 319.75 107.148438 320.207031 107.351562 C 320.660156 107.554688 321.054688 107.867188 321.378906 108.285156 C 321.703125 108.703125 321.867188 109.265625 321.867188 109.984375 C 321.867188 110.535156 321.726562 111.0625 321.425781 111.550781 C 321.128906 112.042969 320.695312 112.4375 320.121094 112.738281 C 319.546875 113.035156 318.863281 113.191406 318.085938 113.191406 C 317.34375 113.203125 316.675781 113.074219 316.085938 112.808594 Z M 316.085938 112.808594 " fill-opacity="1" fill-rule="nonzero"/><path fill="#ffffff" d="M 330.773438 110.558594 L 325.820312 110.558594 L 324.910156 113.085938 L 323.339844 113.085938 L 327.445312 101.796875 L 329.160156 101.796875 L 333.253906 113.085938 L 331.683594 113.085938 Z M 330.34375 109.363281 L 328.285156 103.628906 L 326.226562 109.363281 Z M 330.34375 109.363281 " fill-opacity="1" fill-rule="nonzero"/><path fill="#ffffff" d="M 342.039062 101.738281 L 342.039062 102.945312 L 338.9375 102.945312 L 338.9375 113.097656 L 337.453125 113.097656 L 337.453125 102.945312 L 334.339844 102.945312 L 334.339844 101.738281 Z M 342.039062 101.738281 " fill-opacity="1" fill-rule="nonzero"/><path fill="#ebebeb" d="M 64.847656 164.625 L 28.160156 164.625 C 27.082031 164.625 26.210938 163.75 26.210938 162.675781 L 26.210938 125.988281 C 26.210938 124.910156 27.082031 124.035156 28.160156 124.035156 L 64.847656 124.035156 C 65.925781 124.035156 66.796875 124.910156 66.796875 125.988281 L 66.796875 162.675781 C 66.796875 163.75 65.925781 164.625 64.847656 164.625 Z M 64.847656 164.625 " fill-opacity="1" fill-rule="nonzero"/><path fill="#ebebeb" d="M 111.742188 164.625 L 75.058594 164.625 C 73.980469 164.625 73.105469 163.75 73.105469 162.675781 L 73.105469 125.988281 C 73.105469 124.910156 73.980469 124.035156 75.058594 124.035156 L 111.742188 124.035156 C 112.820312 124.035156 113.695312 124.910156 113.695312 125.988281 L 113.695312 162.675781 C 113.683594 163.75 112.820312 164.625 111.742188 164.625 Z M 111.742188 164.625 " fill-opacity="1" fill-rule="nonzero"/><path fill="#ebebeb" d="M 158.628906 164.625 L 121.941406 164.625 C 120.863281 164.625 119.992188 163.75 119.992188 162.675781 L 119.992188 125.988281 C 119.992188 124.910156 120.863281 124.035156 121.941406 124.035156 L 158.628906 124.035156 C 159.707031 124.035156 160.578125 124.910156 160.578125 125.988281 L 160.578125 162.675781 C 160.578125 163.75 159.707031 164.625 158.628906 164.625 Z M 158.628906 164.625 " fill-opacity="1" fill-rule="nonzero"/><path fill="#ebebeb" d="M 205.511719 164.625 L 168.828125 164.625 C 167.75 164.625 166.875 163.75 166.875 162.675781 L 166.875 125.988281 C 166.875 124.910156 167.75 124.035156 168.828125 124.035156 L 205.511719 124.035156 C 206.589844 124.035156 207.464844 124.910156 207.464844 125.988281 L 207.464844 162.675781 C 207.464844 163.75 206.589844 164.625 205.511719 164.625 Z M 205.511719 164.625 " fill-opacity="1" fill-rule="nonzero"/><path fill="#ebebeb" d="M 252.410156 164.625 L 215.722656 164.625 C 214.644531 164.625 213.773438 163.75 213.773438 162.675781 L 213.773438 125.988281 C 213.773438 124.910156 214.644531 124.035156 215.722656 124.035156 L 252.410156 124.035156 C 253.488281 124.035156 254.359375 124.910156 254.359375 125.988281 L 254.359375 162.675781 C 254.359375 163.75 253.488281 164.625 252.410156 164.625 Z M 252.410156 164.625 " fill-opacity="1" fill-rule="nonzero"/><path fill="#ebebeb" d="M 299.292969 164.625 L 262.609375 164.625 C 261.53125 164.625 260.65625 163.75 260.65625 162.675781 L 260.65625 125.988281 C 260.65625 124.910156 261.53125 124.035156 262.609375 124.035156 L 299.292969 124.035156 C 300.371094 124.035156 301.246094 124.910156 301.246094 125.988281 L 301.246094 162.675781 C 301.246094 163.75 300.371094 164.625 299.292969 164.625 Z M 299.292969 164.625 " fill-opacity="1" fill-rule="nonzero"/><path fill="#ebebeb" d="M 346.191406 164.625 L 309.503906 164.625 C 308.425781 164.625 307.554688 163.75 307.554688 162.675781 L 307.554688 125.988281 C 307.554688 124.910156 308.425781 124.035156 309.503906 124.035156 L 346.191406 124.035156 C 347.269531 124.035156 348.140625 124.910156 348.140625 125.988281 L 348.140625 162.675781 C 348.140625 163.75 347.269531 164.625 346.191406 164.625 Z M 346.191406 164.625 " fill-opacity="1" fill-rule="nonzero"/><path fill="#ebebeb" d="M 64.847656 210.816406 L 28.160156 210.816406 C 27.082031 210.816406 26.210938 209.941406 26.210938 208.863281 L 26.210938 172.179688 C 26.210938 171.101562 27.082031 170.226562 28.160156 170.226562 L 64.847656 170.226562 C 65.925781 170.226562 66.796875 171.101562 66.796875 172.179688 L 66.796875 208.863281 C 66.796875 209.941406 65.925781 210.816406 64.847656 210.816406 Z M 64.847656 210.816406 " fill-opacity="1" fill-rule="nonzero"/><path fill="#ebebeb" d="M 111.742188 210.816406 L 75.058594 210.816406 C 73.980469 210.816406 73.105469 209.941406 73.105469 208.863281 L 73.105469 172.179688 C 73.105469 171.101562 73.980469 170.226562 75.058594 170.226562 L 111.742188 170.226562 C 112.820312 170.226562 113.695312 171.101562 113.695312 172.179688 L 113.695312 208.863281 C 113.683594 209.941406 112.820312 210.816406 111.742188 210.816406 Z M 111.742188 210.816406 " fill-opacity="1" fill-rule="nonzero"/><path fill="#ebebeb" d="M 158.628906 210.816406 L 121.941406 210.816406 C 120.863281 210.816406 119.992188 209.941406 119.992188 208.863281 L 119.992188 172.179688 C 119.992188 171.101562 120.863281 170.226562 121.941406 170.226562 L 158.628906 170.226562 C 159.707031 170.226562 160.578125 171.101562 160.578125 172.179688 L 160.578125 208.863281 C 160.578125 209.941406 159.707031 210.816406 158.628906 210.816406 Z M 158.628906 210.816406 " fill-opacity="1" fill-rule="nonzero"/><path fill="#ebebeb" d="M 205.511719 210.816406 L 168.828125 210.816406 C 167.75 210.816406 166.875 209.941406 166.875 208.863281 L 166.875 172.179688 C 166.875 171.101562 167.75 170.226562 168.828125 170.226562 L 205.511719 170.226562 C 206.589844 170.226562 207.464844 171.101562 207.464844 172.179688 L 207.464844 208.863281 C 207.464844 209.941406 206.589844 210.816406 205.511719 210.816406 Z M 205.511719 210.816406 " fill-opacity="1" fill-rule="nonzero"/><path fill="#ebebeb" d="M 252.410156 210.816406 L 215.722656 210.816406 C 214.644531 210.816406 213.773438 209.941406 213.773438 208.863281 L 213.773438 172.179688 C 213.773438 171.101562 214.644531 170.226562 215.722656 170.226562 L 252.410156 170.226562 C 253.488281 170.226562 254.359375 171.101562 254.359375 172.179688 L 254.359375 208.863281 C 254.359375 209.941406 253.488281 210.816406 252.410156 210.816406 Z M 252.410156 210.816406 " fill-opacity="1" fill-rule="nonzero"/><path fill="#ebebeb" d="M 299.292969 210.816406 L 262.609375 210.816406 C 261.53125 210.816406 260.65625 209.941406 260.65625 208.863281 L 260.65625 172.179688 C 260.65625 171.101562 261.53125 170.226562 262.609375 170.226562 L 299.292969 170.226562 C 300.371094 170.226562 301.246094 171.101562 301.246094 172.179688 L 301.246094 208.863281 C 301.246094 209.941406 300.371094 210.816406 299.292969 210.816406 Z M 299.292969 210.816406 " fill-opacity="1" fill-rule="nonzero"/><path fill="#ebebeb" d="M 346.191406 210.816406 L 309.503906 210.816406 C 308.425781 210.816406 307.554688 209.941406 307.554688 208.863281 L 307.554688 172.179688 C 307.554688 171.101562 308.425781 170.226562 309.503906 170.226562 L 346.191406 170.226562 C 347.269531 170.226562 348.140625 171.101562 348.140625 172.179688 L 348.140625 208.863281 C 348.140625 209.941406 347.269531 210.816406 346.191406 210.816406 Z M 346.191406 210.816406 " fill-opacity="1" fill-rule="nonzero"/><path fill="#ebebeb" d="M 64.847656 257.007812 L 28.160156 257.007812 C 27.082031 257.007812 26.210938 256.132812 26.210938 255.054688 L 26.210938 218.367188 C 26.210938 217.292969 27.082031 216.417969 28.160156 216.417969 L 64.847656 216.417969 C 65.925781 216.417969 66.796875 217.292969 66.796875 218.367188 L 66.796875 255.054688 C 66.796875 256.132812 65.925781 257.007812 64.847656 257.007812 Z M 64.847656 257.007812 " fill-opacity="1" fill-rule="nonzero"/><path fill="#ebebeb" d="M 111.742188 257.007812 L 75.058594 257.007812 C 73.980469 257.007812 73.105469 256.132812 73.105469 255.054688 L 73.105469 218.367188 C 73.105469 217.292969 73.980469 216.417969 75.058594 216.417969 L 111.742188 216.417969 C 112.820312 216.417969 113.695312 217.292969 113.695312 218.367188 L 113.695312 255.054688 C 113.683594 256.132812 112.820312 257.007812 111.742188 257.007812 Z M 111.742188 257.007812 " fill-opacity="1" fill-rule="nonzero"/><path fill="#ebebeb" d="M 158.628906 257.007812 L 121.941406 257.007812 C 120.863281 257.007812 119.992188 256.132812 119.992188 255.054688 L 119.992188 218.367188 C 119.992188 217.292969 120.863281 216.417969 121.941406 216.417969 L 158.628906 216.417969 C 159.707031 216.417969 160.578125 217.292969 160.578125 218.367188 L 160.578125 255.054688 C 160.578125 256.132812 159.707031 257.007812 158.628906 257.007812 Z M 158.628906 257.007812 " fill-opacity="1" fill-rule="nonzero"/><path fill="#ebebeb" d="M 205.511719 257.007812 L 168.828125 257.007812 C 167.75 257.007812 166.875 256.132812 166.875 255.054688 L 166.875 218.367188 C 166.875 217.292969 167.75 216.417969 168.828125 216.417969 L 205.511719 216.417969 C 206.589844 216.417969 207.464844 217.292969 207.464844 218.367188 L 207.464844 255.054688 C 207.464844 256.132812 206.589844 257.007812 205.511719 257.007812 Z M 205.511719 257.007812 " fill-opacity="1" fill-rule="nonzero"/><path fill="#ebebeb" d="M 252.410156 257.007812 L 215.722656 257.007812 C 214.644531 257.007812 213.773438 256.132812 213.773438 255.054688 L 213.773438 218.367188 C 213.773438 217.292969 214.644531 216.417969 215.722656 216.417969 L 252.410156 216.417969 C 253.488281 216.417969 254.359375 217.292969 254.359375 218.367188 L 254.359375 255.054688 C 254.359375 256.132812 253.488281 257.007812 252.410156 257.007812 Z M 252.410156 257.007812 " fill-opacity="1" fill-rule="nonzero"/><path fill="#ebebeb" d="M 299.292969 257.007812 L 262.609375 257.007812 C 261.53125 257.007812 260.65625 256.132812 260.65625 255.054688 L 260.65625 218.367188 C 260.65625 217.292969 261.53125 216.417969 262.609375 216.417969 L 299.292969 216.417969 C 300.371094 216.417969 301.246094 217.292969 301.246094 218.367188 L 301.246094 255.054688 C 301.246094 256.132812 300.371094 257.007812 299.292969 257.007812 Z M 299.292969 257.007812 " fill-opacity="1" fill-rule="nonzero"/><path fill="#ebebeb" d="M 346.191406 257.007812 L 309.503906 257.007812 C 308.425781 257.007812 307.554688 256.132812 307.554688 255.054688 L 307.554688 218.367188 C 307.554688 217.292969 308.425781 216.417969 309.503906 216.417969 L 346.191406 216.417969 C 347.269531 216.417969 348.140625 217.292969 348.140625 218.367188 L 348.140625 255.054688 C 348.140625 256.132812 347.269531 257.007812 346.191406 257.007812 Z M 346.191406 257.007812 " fill-opacity="1" fill-rule="nonzero"/><path fill="#ebebeb" d="M 64.847656 303.195312 L 28.160156 303.195312 C 27.082031 303.195312 26.210938 302.324219 26.210938 301.246094 L 26.210938 264.558594 C 26.210938 263.480469 27.082031 262.609375 28.160156 262.609375 L 64.847656 262.609375 C 65.925781 262.609375 66.796875 263.480469 66.796875 264.558594 L 66.796875 301.246094 C 66.796875 302.324219 65.925781 303.195312 64.847656 303.195312 Z M 64.847656 303.195312 " fill-opacity="1" fill-rule="nonzero"/><path fill="#ebebeb" d="M 111.742188 303.195312 L 75.058594 303.195312 C 73.980469 303.195312 73.105469 302.324219 73.105469 301.246094 L 73.105469 264.558594 C 73.105469 263.480469 73.980469 262.609375 75.058594 262.609375 L 111.742188 262.609375 C 112.820312 262.609375 113.695312 263.480469 113.695312 264.558594 L 113.695312 301.246094 C 113.683594 302.324219 112.820312 303.195312 111.742188 303.195312 Z M 111.742188 303.195312 " fill-opacity="1" fill-rule="nonzero"/><path fill="#ebebeb" d="M 158.628906 303.195312 L 121.941406 303.195312 C 120.863281 303.195312 119.992188 302.324219 119.992188 301.246094 L 119.992188 264.558594 C 119.992188 263.480469 120.863281 262.609375 121.941406 262.609375 L 158.628906 262.609375 C 159.707031 262.609375 160.578125 263.480469 160.578125 264.558594 L 160.578125 301.246094 C 160.578125 302.324219 159.707031 303.195312 158.628906 303.195312 Z M 158.628906 303.195312 " fill-opacity="1" fill-rule="nonzero"/><path fill="#ebebeb" d="M 205.511719 303.195312 L 168.828125 303.195312 C 167.75 303.195312 166.875 302.324219 166.875 301.246094 L 166.875 264.558594 C 166.875 263.480469 167.75 262.609375 168.828125 262.609375 L 205.511719 262.609375 C 206.589844 262.609375 207.464844 263.480469 207.464844 264.558594 L 207.464844 301.246094 C 207.464844 302.324219 206.589844 303.195312 205.511719 303.195312 Z M 205.511719 303.195312 " fill-opacity="1" fill-rule="nonzero"/><path fill="#ebebeb" d="M 252.410156 303.195312 L 215.722656 303.195312 C 214.644531 303.195312 213.773438 302.324219 213.773438 301.246094 L 213.773438 264.558594 C 213.773438 263.480469 214.644531 262.609375 215.722656 262.609375 L 252.410156 262.609375 C 253.488281 262.609375 254.359375 263.480469 254.359375 264.558594 L 254.359375 301.246094 C 254.359375 302.324219 253.488281 303.195312 252.410156 303.195312 Z M 252.410156 303.195312 " fill-opacity="1" fill-rule="nonzero"/><path fill="#ebebeb" d="M 299.292969 303.195312 L 262.609375 303.195312 C 261.53125 303.195312 260.65625 302.324219 260.65625 301.246094 L 260.65625 264.558594 C 260.65625 263.480469 261.53125 262.609375 262.609375 262.609375 L 299.292969 262.609375 C 300.371094 262.609375 301.246094 263.480469 301.246094 264.558594 L 301.246094 301.246094 C 301.246094 302.324219 300.371094 303.195312 299.292969 303.195312 Z M 299.292969 303.195312 " fill-opacity="1" fill-rule="nonzero"/><path fill="#ebebeb" d="M 346.191406 303.195312 L 309.503906 303.195312 C 308.425781 303.195312 307.554688 302.324219 307.554688 301.246094 L 307.554688 264.558594 C 307.554688 263.480469 308.425781 262.609375 309.503906 262.609375 L 346.191406 262.609375 C 347.269531 262.609375 348.140625 263.480469 348.140625 264.558594 L 348.140625 301.246094 C 348.140625 302.324219 347.269531 303.195312 346.191406 303.195312 Z M 346.191406 303.195312 " fill-opacity="1" fill-rule="nonzero"/><path fill="#ebebeb" d="M 64.847656 349.386719 L 28.160156 349.386719 C 27.082031 349.386719 26.210938 348.511719 26.210938 347.4375 L 26.210938 310.75 C 26.210938 309.671875 27.082031 308.796875 28.160156 308.796875 L 64.847656 308.796875 C 65.925781 308.796875 66.796875 309.671875 66.796875 310.75 L 66.796875 347.4375 C 66.796875 348.511719 65.925781 349.386719 64.847656 349.386719 Z M 64.847656 349.386719 " fill-opacity="1" fill-rule="nonzero"/><path fill="#ebebeb" d="M 111.742188 349.386719 L 75.058594 349.386719 C 73.980469 349.386719 73.105469 348.511719 73.105469 347.4375 L 73.105469 310.75 C 73.105469 309.671875 73.980469 308.796875 75.058594 308.796875 L 111.742188 308.796875 C 112.820312 308.796875 113.695312 309.671875 113.695312 310.75 L 113.695312 347.4375 C 113.683594 348.511719 112.820312 349.386719 111.742188 349.386719 Z M 111.742188 349.386719 " fill-opacity="1" fill-rule="nonzero"/><path fill="#ebebeb" d="M 158.628906 349.386719 L 121.941406 349.386719 C 120.863281 349.386719 119.992188 348.511719 119.992188 347.4375 L 119.992188 310.75 C 119.992188 309.671875 120.863281 308.796875 121.941406 308.796875 L 158.628906 308.796875 C 159.707031 308.796875 160.578125 309.671875 160.578125 310.75 L 160.578125 347.4375 C 160.578125 348.511719 159.707031 349.386719 158.628906 349.386719 Z M 158.628906 349.386719 " fill-opacity="1" fill-rule="nonzero"/><path fill="#ebebeb" d="M 205.511719 349.386719 L 168.828125 349.386719 C 167.75 349.386719 166.875 348.511719 166.875 347.4375 L 166.875 310.75 C 166.875 309.671875 167.75 308.796875 168.828125 308.796875 L 205.511719 308.796875 C 206.589844 308.796875 207.464844 309.671875 207.464844 310.75 L 207.464844 347.4375 C 207.464844 348.511719 206.589844 349.386719 205.511719 349.386719 Z M 205.511719 349.386719 " fill-opacity="1" fill-rule="nonzero"/><path fill="#ebebeb" d="M 252.410156 349.386719 L 215.722656 349.386719 C 214.644531 349.386719 213.773438 348.511719 213.773438 347.4375 L 213.773438 310.75 C 213.773438 309.671875 214.644531 308.796875 215.722656 308.796875 L 252.410156 308.796875 C 253.488281 308.796875 254.359375 309.671875 254.359375 310.75 L 254.359375 347.4375 C 254.359375 348.511719 253.488281 349.386719 252.410156 349.386719 Z M 252.410156 349.386719 " fill-opacity="1" fill-rule="nonzero"/><path fill="#ebebeb" d="M 299.292969 349.386719 L 262.609375 349.386719 C 261.53125 349.386719 260.65625 348.511719 260.65625 347.4375 L 260.65625 310.75 C 260.65625 309.671875 261.53125 308.796875 262.609375 308.796875 L 299.292969 308.796875 C 300.371094 308.796875 301.246094 309.671875 301.246094 310.75 L 301.246094 347.4375 C 301.246094 348.511719 300.371094 349.386719 299.292969 349.386719 Z M 299.292969 349.386719 " fill-opacity="1" fill-rule="nonzero"/><path fill="#ebebeb" d="M 346.191406 349.386719 L 309.503906 349.386719 C 308.425781 349.386719 307.554688 348.511719 307.554688 347.4375 L 307.554688 310.75 C 307.554688 309.671875 308.425781 308.796875 309.503906 308.796875 L 346.191406 308.796875 C 347.269531 308.796875 348.140625 309.671875 348.140625 310.75 L 348.140625 347.4375 C 348.140625 348.511719 347.269531 349.386719 346.191406 349.386719 Z M 346.191406 349.386719 " fill-opacity="1" fill-rule="nonzero"/><g clip-path="url(#7e6f377742)"><path fill="#ffffff" d="M 353.335938 366.898438 L 21.375 366.898438 C 13.894531 366.898438 7.8125 360.816406 7.8125 353.335938 L 7.8125 21.375 C 7.8125 13.894531 13.894531 7.8125 21.375 7.8125 L 353.335938 7.8125 C 360.816406 7.8125 366.898438 13.894531 366.898438 21.375 L 366.898438 353.335938 C 366.898438 360.816406 360.816406 366.898438 353.335938 366.898438 Z M 21.375 10.902344 C 15.59375 10.902344 10.902344 15.605469 10.902344 21.375 L 10.902344 353.335938 C 10.902344 359.117188 15.605469 363.808594 21.375 363.808594 L 353.335938 363.808594 C 359.117188 363.808594 363.808594 359.105469 363.808594 353.335938 L 363.808594 21.375 C 363.808594 15.59375 359.105469 10.902344 353.335938 10.902344 C 353.335938 10.902344 21.375 10.902344 21.375 10.902344 Z M 21.375 10.902344 " fill-opacity="1" fill-rule="nonzero"/></g><g clip-path="url(#d015eae667)"><path stroke-linecap="butt" transform="matrix(0.75, 0, 0, 0.75, 7.812505, 7.812509)" fill="none" stroke-linejoin="miter" d="M -0.00000616931 -0.0000123293 L -0.00000616931 478.781238 L 478.781245 478.781238 L 478.781245 -0.0000123293 L -0.00000616931 -0.0000123293 " stroke="#000000" stroke-width="22" stroke-opacity="1" stroke-miterlimit="4"/></g></svg>