<svg xmlns="http://www.w3.org/2000/svg" xmlns:xlink="http://www.w3.org/1999/xlink" width="500" zoomAndPan="magnify" viewBox="0 0 375 374.999991" height="500" preserveAspectRatio="xMidYMid meet" version="1.0"><path fill="#000000" d="M 374.941406 187.453125 C 374.941406 291.003906 291.003906 374.941406 187.453125 374.941406 C 83.90625 374.941406 -0.03125 291.003906 -0.03125 187.453125 C -0.03125 83.90625 83.90625 -0.03125 187.453125 -0.03125 C 291.003906 -0.03125 374.941406 83.90625 374.941406 187.453125 Z M 255.8125 179.429688 L 147.539062 113.8125 C 144.652344 112.066406 141.015625 112.011719 138.089844 113.660156 C 135.148438 115.328125 133.308594 118.441406 133.308594 121.835938 L 133.308594 253.074219 C 133.308594 256.46875 135.148438 259.582031 138.089844 261.25 C 139.515625 262.054688 141.089844 262.449219 142.683594 262.449219 C 144.371094 262.449219 146.058594 262 147.539062 261.097656 L 255.8125 195.480469 C 258.605469 193.773438 260.332031 190.734375 260.332031 187.453125 C 260.332031 184.175781 258.625 181.136719 255.8125 179.429688 Z M 255.8125 179.429688 " fill-opacity="1" fill-rule="nonzero"/></svg>